<?xml version="1.0" encoding="UTF-8" standalone="no"?>
<!DOCTYPE svg PUBLIC "-//W3C//DTD SVG 1.1//EN" "http://www.w3.org/Graphics/SVG/1.1/DTD/svg11.dtd">
<!-- Created with Vectornator (http://vectornator.io/) -->
<svg height="100%" stroke-miterlimit="10" style="fill-rule:nonzero;clip-rule:evenodd;stroke-linecap:round;stroke-linejoin:round;" version="1.1" viewBox="0 0 455 455" width="100%" xml:space="preserve" xmlns="http://www.w3.org/2000/svg" xmlns:xlink="http://www.w3.org/1999/xlink">
<defs/>
<g id="Untitled">
<path d="M226.78 1.05772C214.13 20.1117 191.076 27.5787 170.686 35.3077C151.465 42.5398 132.274 49.7977 112.342 54.8077C86.9621 62.4726 60.4291 68.2567 37.4041 81.8697C33.0645 83.7292 40.2811 84.474 41.1541 86.9009C51.2321 99.0799 50.7016 116.355 48.8103 131.245C46.1633 147.992 36.7763 162.746 33.6853 179.37C23.1973 222.045 27.5553 267.994 45.1543 308.06C50.7767 325.959 51.1518 347.03 41.2793 363.529C40.2363 366.277 35.6526 368.503 35.2481 370.216C55.1161 383.358 78.9111 388.724 101.373 395.654C123.906 401.864 146.394 408.195 167.748 417.842C188.663 426.708 211.557 435.068 226.436 453.061C228.408 456.408 230.524 449.404 232.905 448.186C253.989 426.857 284.33 419.559 311.186 408.217C345.101 396.508 381.268 390.382 412.996 373.373C414.897 371.718 421.197 369.795 416.152 367.811C402.667 354.649 403.292 333.425 407.215 316.405C411.903 300.621 419.503 285.723 422.309 269.405C431.081 227.904 427.751 183.18 409.34 144.715C403.379 127.591 401.885 107.15 410.84 90.7459C412.149 87.642 416.192 85.233 417.715 83.4021C396.695 69.4531 371.631 63.8951 347.809 56.3711C326.643 50.6677 305.875 43.8781 285.497 35.6521C266.503 28.0445 245.606 21.6231 231.153 6.43312C229.4 5.20302 227.909 0.734518 226.778 1.05812L226.78 1.05772ZM226.28 32.6827C226.688 32.6674 227.115 32.6671 227.53 32.6827C241.027 32.0928 250.544 48.9547 242.905 60.1517C236.464 71.9137 217.357 71.4287 211.561 59.308C205.073 48.201 213.647 33.158 226.28 32.683L226.28 32.6827ZM189.749 49.7767C190.981 49.6645 189.319 52.2943 189.749 54.1517C177.607 57.4463 164.612 62.4161 153.28 68.9017C134.878 75.4493 118.296 90.1477 114.374 109.808C107.922 109.738 101.237 110.022 94.9681 111.933C81.9021 115.013 74.8401 127.484 68.2491 138.058C71.274 123.893 71.8372 108.841 67.5303 94.8697C64.4333 90.5213 68.996 89.6047 72.4991 88.3072C112.065 76.7872 151.262 64.3462 189.749 49.7762L189.749 49.7767ZM266.061 49.9955C305.849 67.4205 349.05 75.1995 389.281 91.4335C384.719 105.769 383.694 121.299 386.719 136.058C379.522 118.228 359.986 107.601 341.125 109.183C338.976 96.8635 331.228 85.9995 321.187 78.7775C303.966 70.0144 285.3 58.5925 266.104 54.4295L266.061 49.9958L266.061 49.9955ZM195.999 72.8395C207.288 73.7969 214.438 84.6265 221.093 92.6205C223.412 95.2118 225.641 99.8047 227.656 101.464C235.255 90.7403 243.133 78.5523 255.687 73.3083C266.515 71.8351 276.125 79.3005 285.875 82.9021C296.255 87.9311 307.624 92.6078 315.906 100.652C322.001 109.42 320.682 120.784 322.968 130.777C335.326 130.254 349.55 126.196 360.687 133.371C374.438 151.226 382.899 172.983 387.499 194.965C396.06 237.691 386.92 284.001 361.499 319.495C351.935 326.579 338.858 323.894 327.78 323.401C321.898 320.954 322.777 326.799 322.343 330.995C321.267 341.304 319.361 354.101 308.531 358.776C294.739 367.168 279.97 374.107 264.812 379.588C254.272 384.244 245.528 374.172 239.281 367.182C235.023 362.219 231.135 356.882 227.437 351.463C219.325 362.048 211.992 375.035 199.187 380.369C188.729 381.788 179.374 374.701 169.999 371.119C159.198 366.076 147.956 360.882 138.905 353.15C132.106 344.654 131.358 333.127 131.467 322.681C119.253 322.512 105.373 327.358 94.2791 320.4C69.2411 286.29 59.5191 241.669 66.5601 199.99C70.6147 176.321 79.4471 153.014 93.9041 133.771C104.117 126.809 117.589 130.576 129.092 130.739C134.284 132.421 131.294 124.71 132.655 121.864C133.608 111.409 136.251 98.8435 147.217 94.3645C160.78 86.2098 175.278 79.4415 190.123 74.0525C192.059 73.5695 193.996 72.9547 195.998 72.8337L195.999 72.8395ZM387.499 316.339C384.299 331.531 383.976 348.066 390.124 362.651C351.285 377.444 309.744 386.163 271.284 402.62C266.815 405.64 265.116 404.923 265.597 399.777C278.973 397.692 291.196 391.463 302.972 385.121C321.26 378.882 337.654 364.188 341.597 344.715C348.493 344.692 355.881 344.214 362.566 341.808C374.807 338.388 381.082 326.59 387.347 316.589L387.503 316.339L387.499 316.339ZM68.2491 316.589C68.3122 316.547 68.7377 317.487 68.9366 317.777C75.8181 335.345 95.0316 346.312 113.718 344.839C116.24 357.019 124.204 367.57 134.093 374.808C150.973 383.337 167.122 394.374 185.781 398.933C190.622 398.694 190.841 401.152 189.937 405.214C150.358 385.952 105.848 378.799 64.8768 362.714C69.2271 348.409 71.3886 331.911 68.2518 316.652C68.2441 316.6 68.2428 316.596 68.2518 316.59L68.2491 316.589ZM226.279 387.308C226.687 387.293 227.114 387.293 227.529 387.308C241.026 386.719 250.543 403.58 242.904 414.777C236.483 426.589 217.329 426.085 211.56 413.934C205.072 402.827 213.646 387.784 226.279 387.309L226.279 387.308Z" fill="#cccccc" fill-rule="evenodd" opacity="1" stroke="#000000" stroke-linecap="round" stroke-linejoin="round" stroke-width="1"/>
</g>
</svg>
