<?xml version="1.0" encoding="UTF-8" standalone="no"?>
<svg
   xmlns:dc="http://purl.org/dc/elements/1.1/"
   xmlns:cc="http://creativecommons.org/ns#"
   xmlns:rdf="http://www.w3.org/1999/02/22-rdf-syntax-ns#"
   xmlns:svg="http://www.w3.org/2000/svg"
   xmlns="http://www.w3.org/2000/svg"
   xmlns:sodipodi="http://sodipodi.sourceforge.net/DTD/sodipodi-0.dtd"
   xmlns:inkscape="http://www.inkscape.org/namespaces/inkscape"
   inkscape:version="1.0 (b51213c273, 2020-08-10)"
   id="svg1350"
   version="1.1"
   viewBox="0 0 793.74998 555.62501"
   height="2100"
   width="3000"
   sodipodi:docname="koran_book.svg">
  <defs
     id="defs1344">
    <mask
       maskUnits="userSpaceOnUse"
       id="mask3262">
      <path
         id="path3264"
         style="fill:#d4aa00;stroke:none;stroke-width:2.11667;stroke-linecap:round;stroke-linejoin:round;stroke-miterlimit:4;stroke-dasharray:4.23333, 4.23333;stroke-dashoffset:0;paint-order:markers fill stroke"
         d="M 1107.2275,254.34416 773.63235,445.75833 530.48802,305.78909 v 70.21071 l 226.16449,130.32375 c 0,0 6.79513,4.77141 16.43165,5.18779 9.0137,0.38949 17.98169,-5.54554 17.98169,-5.54554 L 1103.1384,326.9012 c 0,0 2.7288,-2.48661 3.4083,-4.13988 0.9477,-2.30584 0.6808,-7.44802 0.6808,-7.44802 z"
         sodipodi:nodetypes="cccccsccacc" />
    </mask>
    <mask
       maskUnits="userSpaceOnUse"
       id="mask3317">
      <path
         id="path3319"
         style="fill:#d4aa00;fill-opacity:1;stroke:none;stroke-width:2.11667;stroke-linecap:round;stroke-linejoin:round;stroke-miterlimit:4;stroke-dasharray:4.23333, 4.23333;stroke-dashoffset:0;paint-order:markers fill stroke"
         d="M 1107.2275,386.78316 773.63233,578.19732 530.48802,438.22808 v 70.2107 l 226.16449,130.32375 c 0,0 6.79513,4.77142 16.43165,5.18779 9.0137,0.3895 17.98169,-5.54553 17.98169,-5.54553 l 312.07255,-179.0646 c 0,0 2.7288,-2.48661 3.4083,-4.13986 0.9477,-2.30587 0.6808,-7.44805 0.6808,-7.44805 z"
         sodipodi:nodetypes="cccccsccacc" />
    </mask>
  </defs>
  <sodipodi:namedview
     borderlayer="true"
     inkscape:pagecheckerboard="true"
     units="px"
     showgrid="false"
     inkscape:document-rotation="0"
     inkscape:current-layer="g2636"
     inkscape:document-units="px"
     inkscape:cy="1103.9172"
     inkscape:cx="1855.8052"
     inkscape:zoom="0.24748737"
     inkscape:pageshadow="2"
     inkscape:pageopacity="0.0"
     borderopacity="1.0"
     bordercolor="#666666"
     pagecolor="#ffffff"
     id="base" />
  <metadata
     id="metadata1347">
    <rdf:RDF>
      <cc:Work
         rdf:about="">
        <dc:format>image/svg+xml</dc:format>
        <dc:type
           rdf:resource="http://purl.org/dc/dcmitype/StillImage" />
        <dc:title></dc:title>
      </cc:Work>
    </rdf:RDF>
  </metadata>
  <g
     id="layer1"
     inkscape:groupmode="layer"
     inkscape:label="Layer 1">
    <g
       id="g2636"
       transform="matrix(1.2919703,0,0,1.2919703,-658.6493,-128.67692)"
       style="stroke-width:0.774012">
      <path
         id="path3234"
         style="fill:#2d5016;fill-opacity:1;stroke:none;stroke-width:7.14759;stroke-linecap:round;stroke-linejoin:round;paint-order:markers fill stroke"
         d="m 764.78976,181.63229 c 0,0 -151.87267,87.68376 -226.92997,131.01809 v 0 c -9.00756,5.20055 -9.00946,13.57292 0,18.77213 l 305.49682,176.3787 c 9.00533,5.19922 23.50673,5.19816 32.51434,-0.003 25.31863,-14.59972 191.75975,-105.99858 221.40135,-127.94924 8.0526,-5.96331 5.0541,-62.72308 5.0541,-62.72308"
         sodipodi:nodetypes="cccsscsc" />
      <path
         id="rect3236"
         style="fill:#d4aa00;stroke:none;stroke-width:1.63833;stroke-linecap:round;stroke-linejoin:round;stroke-miterlimit:4;stroke-dasharray:3.27665, 3.27665;stroke-dashoffset:0;paint-order:markers fill stroke"
         d="M 541.0179,257.30792 858.21226,439.31145 1089.4027,306.22362 V 372.9825 L 874.35732,496.89905 c 0,0 -6.46106,4.53684 -15.62382,4.93274 -8.57054,0.37035 -17.09764,-5.2729 -17.09764,-5.2729 L 544.90599,326.29778 c 0,0 -2.59464,-2.36436 -3.24076,-3.93636 -0.90115,-2.19247 -0.64733,-7.08184 -0.64733,-7.08184 z"
         sodipodi:nodetypes="cccccsccacc" />
      <path
         id="rect3248"
         style="fill:#ffffff;fill-opacity:1;stroke:none;stroke-width:1.72304;stroke-linecap:round;stroke-linejoin:round;stroke-miterlimit:4;stroke-dasharray:3.44607, 3.44607;stroke-dashoffset:0;paint-order:markers fill stroke"
         d="m 615.22356,318.49887 h 13.222 L 751.84535,536.8768 h -13.22201 z m 442.71104,-37.32801 h 13.222 L 879.72284,499.54879 h -13.22201 z m -475.31393,29.1864 h 21.974 L 729.3393,531.11517 H 707.36539 Z M 1033.8355,275.7179 h 21.974 L 862.28935,496.47581 h -21.97391 z m -470.52883,37.59145 h 11.5622 L 697.3088,529.98854 h -11.56228 z m 450.19273,-37.32801 h 11.5622 L 835.11703,492.66053 h -11.56228 z"
         mask="url(#mask3262)"
         transform="matrix(-0.95083626,0,0,0.95083626,1593.8099,15.468266)" />
      <path
         id="path3228"
         style="fill:#2d5016;fill-opacity:1;stroke:none;stroke-width:7.14759;stroke-linecap:round;stroke-linejoin:round;paint-order:markers fill stroke"
         d="m 764.62518,117.55864 c -3.69721,0.10353 -6.36286,2.14706 -6.36286,2.14706 -29.83861,17.22733 -154.6214,89.27074 -220.40253,127.24946 v 0 c -9.00756,5.20055 -9.00946,13.57292 0,18.77214 L 843.35661,442.106 c 9.00533,5.19922 23.50673,5.19815 32.51434,-0.003 24.58742,-14.17807 180.10295,-104.0757 218.31035,-126.16242 5.4112,-3.12808 7.1872,11.09548 7.9602,7.52654 2.5169,-11.61859 -4.7543,-15.46208 -4.7543,-15.46208 L 770.7684,119.38962 c 0,0 -2.72354,-1.92674 -6.14322,-1.83098 z"
         sodipodi:nodetypes="scccsscssccs" />
      <path
         style="color:#000000;font-style:normal;font-variant:normal;font-weight:normal;font-stretch:normal;font-size:medium;line-height:normal;font-family:sans-serif;font-variant-ligatures:normal;font-variant-position:normal;font-variant-caps:normal;font-variant-numeric:normal;font-variant-alternates:normal;font-variant-east-asian:normal;font-feature-settings:normal;font-variation-settings:normal;text-indent:0;text-align:start;text-decoration:none;text-decoration-line:none;text-decoration-style:solid;text-decoration-color:#000000;letter-spacing:normal;word-spacing:normal;text-transform:none;writing-mode:lr-tb;direction:ltr;text-orientation:mixed;dominant-baseline:auto;baseline-shift:baseline;text-anchor:start;white-space:normal;shape-padding:0;shape-margin:0;inline-size:0;clip-rule:nonzero;display:inline;overflow:visible;visibility:visible;opacity:1;isolation:auto;mix-blend-mode:normal;color-interpolation:sRGB;color-interpolation-filters:linearRGB;solid-color:#000000;solid-opacity:1;vector-effect:none;fill:none;fill-opacity:1;fill-rule:nonzero;stroke:#aa8800;stroke-width:1.52482;stroke-linecap:round;stroke-linejoin:round;stroke-miterlimit:4;stroke-dasharray:3.04963, 3.04963;stroke-dashoffset:0;stroke-opacity:1;paint-order:markers fill stroke;color-rendering:auto;image-rendering:auto;shape-rendering:auto;text-rendering:auto;enable-background:accumulate;stop-color:#000000;stop-opacity:1"
         d="m 774.78419,123.53086 c 0,0 -151.87362,87.68426 -226.93083,131.01858 -3.88473,2.24288 -3.88388,5.50926 -9e-5,7.75155 l 305.49581,176.3781 c 3.88373,2.24228 9.54132,2.2428 13.42607,-5e-5 l 0.007,-0.004 C 894.79614,422.52295 1093.555,307.62322 1093.555,307.62322"
         id="path3323"
         sodipodi:nodetypes="csssssc" />
      <path
         style="color:#000000;font-style:normal;font-variant:normal;font-weight:normal;font-stretch:normal;font-size:medium;line-height:normal;font-family:sans-serif;font-variant-ligatures:normal;font-variant-position:normal;font-variant-caps:normal;font-variant-numeric:normal;font-variant-alternates:normal;font-variant-east-asian:normal;font-feature-settings:normal;font-variation-settings:normal;text-indent:0;text-align:start;text-decoration:none;text-decoration-line:none;text-decoration-style:solid;text-decoration-color:#000000;letter-spacing:normal;word-spacing:normal;text-transform:none;writing-mode:lr-tb;direction:ltr;text-orientation:mixed;dominant-baseline:auto;baseline-shift:baseline;text-anchor:start;white-space:normal;shape-padding:0;shape-margin:0;inline-size:0;clip-rule:nonzero;display:inline;overflow:visible;visibility:visible;opacity:1;isolation:auto;mix-blend-mode:normal;color-interpolation:sRGB;color-interpolation-filters:linearRGB;solid-color:#000000;solid-opacity:1;vector-effect:none;fill:none;fill-opacity:1;fill-rule:nonzero;stroke:#d4aa00;stroke-width:1.52482;stroke-linecap:round;stroke-linejoin:round;stroke-miterlimit:4;stroke-dasharray:3.04963, 3.04963;stroke-dashoffset:0;stroke-opacity:1;paint-order:markers fill stroke;color-rendering:auto;image-rendering:auto;shape-rendering:auto;text-rendering:auto;enable-background:accumulate;stop-color:#000000;stop-opacity:1"
         d="m 774.78419,123.13136 c 0,0 -151.87362,87.68426 -226.93083,131.01857 -3.88473,2.24288 -3.88388,5.50927 -9e-5,7.75156 l 305.49581,176.37809 c 3.88373,2.24228 9.54132,2.24281 13.42607,-4e-5 l 0.007,-0.004 C 894.79614,422.12345 1093.555,307.22372 1093.555,307.22372"
         id="path3230"
         sodipodi:nodetypes="csssssc" />
      <path
         id="path3284"
         style="color:#000000;font-style:normal;font-variant:normal;font-weight:normal;font-stretch:normal;font-size:medium;line-height:normal;font-family:sans-serif;font-variant-ligatures:normal;font-variant-position:normal;font-variant-caps:normal;font-variant-numeric:normal;font-variant-alternates:normal;font-variant-east-asian:normal;font-feature-settings:normal;font-variation-settings:normal;text-indent:0;text-align:start;text-decoration:none;text-decoration-line:none;text-decoration-style:solid;text-decoration-color:#000000;letter-spacing:normal;word-spacing:normal;text-transform:none;writing-mode:lr-tb;direction:ltr;text-orientation:mixed;dominant-baseline:auto;baseline-shift:baseline;text-anchor:start;white-space:normal;shape-padding:0;shape-margin:0;inline-size:0;clip-rule:nonzero;display:inline;overflow:visible;visibility:visible;opacity:1;isolation:auto;mix-blend-mode:normal;color-interpolation:sRGB;color-interpolation-filters:linearRGB;solid-color:#000000;solid-opacity:1;vector-effect:none;fill:#aa8800;fill-opacity:1;fill-rule:nonzero;stroke:none;stroke-width:0.366145;stroke-linecap:butt;stroke-linejoin:round;stroke-miterlimit:4;stroke-dasharray:none;stroke-dashoffset:0;stroke-opacity:1;paint-order:markers fill stroke;color-rendering:auto;image-rendering:auto;shape-rendering:auto;text-rendering:auto;enable-background:accumulate;stop-color:#000000;stop-opacity:1"
         d="m 1107.4512,418.16752 -0.4492,0.0234 c 0,0 0.067,1.27644 0.016,2.83985 -0.051,1.56341 -0.231,3.42002 -0.6797,4.51172 -0.3146,0.76539 -1.1559,1.80234 -1.916,2.62304 -0.7529,0.81289 -1.4092,1.4103 -1.4219,1.42188 L 790.95312,608.63822 a 0.22491849,0.22491849 0 0 0 -0.0117,0.006 c 0,0 -8.93883,5.89473 -17.84766,5.50976 -9.56705,-0.41336 -16.3125,-5.14843 -16.3125,-5.14843 a 0.22491849,0.22491849 0 0 0 -0.0156,-0.01 l -226.16601,-130.32422 -0.22461,0.39063 226.14844,130.3125 c 0,0 0.008,0.004 0.008,0.004 l 0.01,0.006 c 0.0262,0.0184 6.8458,4.80018 16.5332,5.21875 9.11857,0.39403 18.11523,-5.58398 18.11523,-5.58398 L 1103.25,429.96244 a 0.22491849,0.22491849 0 0 0 0.039,-0.0293 c 0,0 0.6887,-0.62697 1.4629,-1.46289 0.7741,-0.83592 1.637,-1.86994 2.0019,-2.75781 0.499,-1.21416 0.6608,-3.08188 0.7129,-4.66602 0.052,-1.58414 -0.016,-2.8789 -0.016,-2.8789 z m 0,-14.58008 -0.4492,0.0234 c 0,0 0.067,1.27643 0.016,2.83984 -0.051,1.56341 -0.231,3.42003 -0.6797,4.51172 -0.3146,0.76539 -1.1559,1.80039 -1.916,2.62109 -0.7529,0.81289 -1.4092,1.41226 -1.4219,1.42383 L 790.95312,594.05619 a 0.22491849,0.22491849 0 0 0 -0.0117,0.008 c 0,0 -8.93883,5.89278 -17.84766,5.50781 -9.56705,-0.41337 -16.3125,-5.14648 -16.3125,-5.14648 a 0.22491849,0.22491849 0 0 0 -0.0156,-0.01 L 530.59961,464.09134 530.375,464.48002 756.52344,594.79447 c 0,0 0.008,0.004 0.008,0.004 l 0.01,0.006 c 0.0262,0.0184 6.84581,4.79823 16.5332,5.2168 9.11815,0.39379 18.11481,-5.58227 18.11481,-5.58227 L 1103.25,415.38236 a 0.22491849,0.22491849 0 0 0 0.039,-0.0293 c 0,0 0.6887,-0.62697 1.4629,-1.46289 0.7741,-0.83592 1.637,-1.86994 2.0019,-2.75781 0.499,-1.21416 0.6608,-3.08187 0.7129,-4.66602 0.052,-1.58414 -0.016,-2.8789 -0.016,-2.8789 z m 0,37.47851 -0.4492,0.0234 c 0,0 0.067,1.27643 0.016,2.83984 -0.051,1.56341 -0.231,3.42003 -0.6797,4.51172 -0.3146,0.7654 -1.1559,1.8004 -1.916,2.6211 -0.7529,0.81289 -1.4092,1.41225 -1.4219,1.42383 L 790.95312,631.5347 a 0.22491849,0.22491849 0 0 0 -0.0117,0.008 c 0,0 -8.93883,5.89278 -17.84766,5.50781 -9.56705,-0.41337 -16.3125,-5.14649 -16.3125,-5.14649 a 0.22491849,0.22491849 0 0 0 -0.0156,-0.01 L 530.59961,501.56986 530.375,501.95853 756.52344,632.27298 c 0,0 0.008,0.004 0.008,0.004 l 0.01,0.006 c 0.0262,0.0184 6.84581,4.79823 16.5332,5.2168 9.11857,0.39403 18.11523,-5.58203 18.11523,-5.58203 L 1103.25,452.86088 a 0.22491849,0.22491849 0 0 0 0.039,-0.0293 c 0,0 0.6887,-0.62697 1.4629,-1.46289 0.7741,-0.83592 1.637,-1.86994 2.0019,-2.75781 0.499,-1.21416 0.6608,-3.08188 0.7129,-4.66602 0.052,-1.58414 -0.016,-2.87891 -0.016,-2.87891 z m 0,-14.58007 -0.4492,0.0234 c 0,0 0.067,1.27644 0.016,2.83985 -0.051,1.56341 -0.231,3.41807 -0.6797,4.50976 -0.3146,0.7654 -1.1559,1.80235 -1.916,2.62305 -0.7529,0.81289 -1.4092,1.41225 -1.4219,1.42383 L 790.95312,616.95462 a 0.22491849,0.22491849 0 0 0 -0.0117,0.008 c 0,0 -8.93883,5.89278 -17.84766,5.50781 -9.56705,-0.41337 -16.3125,-5.14648 -16.3125,-5.14648 a 0.22491849,0.22491849 0 0 0 -0.0156,-0.0117 l -226.16601,-130.32227 -0.22461,0.38867 226.16602,130.32422 -0.0176,-0.0117 c 0,0 6.84478,4.80915 16.55078,5.22852 9.11857,0.39403 18.11523,-5.58203 18.11523,-5.58203 L 1103.25,438.2808 a 0.22491849,0.22491849 0 0 0 0.039,-0.0293 c 0,0 0.6887,-0.62697 1.4629,-1.46289 0.7741,-0.83592 1.637,-1.86994 2.0019,-2.75781 0.499,-1.21416 0.6608,-3.08188 0.7129,-4.66602 0.052,-1.58414 -0.016,-2.8789 -0.016,-2.8789 z m 0,-13.10352 -0.4492,0.0234 c 0,0 0.067,1.27643 0.016,2.83984 -0.051,1.56341 -0.231,3.41807 -0.6797,4.50977 -0.3146,0.76539 -1.1559,1.80234 -1.916,2.62304 -0.7529,0.81289 -1.4092,1.41226 -1.4219,1.42383 L 790.95312,603.85111 a 0.22491849,0.22491849 0 0 0 -0.0117,0.008 c 0,0 -8.93883,5.89278 -17.84766,5.50781 -9.56705,-0.41336 -16.3125,-5.14648 -16.3125,-5.14648 a 0.22491849,0.22491849 0 0 0 -0.0156,-0.0117 l -226.16601,-130.32226 -0.22461,0.38867 226.16602,130.32422 -0.0176,-0.0117 c 0,0 6.84478,4.80914 16.55078,5.22851 9.11857,0.39403 18.11523,-5.58203 18.11523,-5.58203 L 1103.25,425.17728 a 0.22491849,0.22491849 0 0 0 0.039,-0.0293 c 0,0 0.6887,-0.62696 1.4629,-1.46289 0.7741,-0.83592 1.637,-1.86994 2.0019,-2.75781 0.499,-1.21416 0.6608,-3.08187 0.7129,-4.66601 0.052,-1.58415 -0.016,-2.87891 -0.016,-2.87891 z m 0,-14.58008 -0.4492,0.0234 c 0,0 0.067,1.27643 0.016,2.83984 -0.051,1.56341 -0.231,3.41808 -0.6797,4.50977 -0.3146,0.7654 -1.1559,1.80234 -1.916,2.62305 -0.7549,0.81511 -1.4167,1.41747 -1.4258,1.42578 L 790.95312,589.27103 a 0.22491849,0.22491849 0 0 0 -0.0117,0.008 c 0,0 -8.93883,5.89278 -17.84766,5.50782 -9.56705,-0.41337 -16.3125,-5.14649 -16.3125,-5.14649 a 0.22491849,0.22491849 0 0 0 -0.0156,-0.0117 l -226.16601,-130.32422 -0.22461,0.39063 226.16602,130.32422 -0.0176,-0.0117 c 0,0 6.84478,4.80914 16.55078,5.22852 9.11857,0.39403 18.11523,-5.58204 18.11523,-5.58204 L 1103.25,410.59525 a 0.22491849,0.22491849 0 0 0 0.039,-0.0273 c 0,0 0.6887,-0.62893 1.4629,-1.46485 0.7741,-0.83592 1.637,-1.86798 2.0019,-2.75586 0.499,-1.21416 0.6608,-3.08382 0.7129,-4.66797 0.052,-1.58414 -0.016,-2.87695 -0.016,-2.87695 z m 0,37.47852 -0.4492,0.0234 c 0,0 0.067,1.27644 0.016,2.83985 -0.051,1.56341 -0.231,3.41807 -0.6797,4.50976 -0.3146,0.7654 -1.1559,1.80235 -1.916,2.62305 -0.7549,0.81512 -1.4167,1.41748 -1.4258,1.42578 L 790.95312,626.74955 a 0.22491849,0.22491849 0 0 0 -0.0117,0.008 c 0,0 -8.93883,5.89278 -17.84766,5.50781 -9.56705,-0.41337 -16.3125,-5.14648 -16.3125,-5.14648 a 0.22491849,0.22491849 0 0 0 -0.0156,-0.0117 l -226.16601,-130.32422 -0.22461,0.39063 226.16602,130.32421 -0.0176,-0.0117 c 0,0 6.84478,4.80914 16.55078,5.22851 9.11857,0.39403 18.11523,-5.58203 18.11523,-5.58203 L 1103.25,448.07377 a 0.22491849,0.22491849 0 0 0 0.039,-0.0274 c 0,0 0.6887,-0.62892 1.4629,-1.46484 0.7741,-0.83592 1.637,-1.86799 2.0019,-2.75586 0.499,-1.21416 0.6608,-3.08383 0.7129,-4.66797 0.052,-1.58414 -0.016,-2.87695 -0.016,-2.87695 z m 0,-14.58203 -0.4492,0.0234 c 0,0 0.067,1.27839 0.016,2.8418 -0.051,1.56341 -0.231,3.41807 -0.6797,4.50977 -0.3146,0.76539 -1.1559,1.80234 -1.916,2.62304 -0.7529,0.81289 -1.4092,1.4103 -1.4219,1.42188 L 790.95312,612.16947 a 0.22491849,0.22491849 0 0 0 -0.0117,0.006 c 0,0 -8.93883,5.89473 -17.84766,5.50976 -9.56705,-0.41336 -16.3125,-5.14843 -16.3125,-5.14843 a 0.22491849,0.22491849 0 0 0 -0.0156,-0.01 L 530.59961,482.20267 530.375,482.5933 756.52344,612.9058 c 0,0 0.008,0.004 0.008,0.004 l 0.01,0.006 c 0.0262,0.0184 6.8458,4.80018 16.5332,5.21875 9.11857,0.39403 18.11523,-5.58398 18.11523,-5.58398 L 1103.25,433.49369 a 0.22491849,0.22491849 0 0 0 0.039,-0.0293 c 0,0 0.6887,-0.62697 1.4629,-1.46289 0.7741,-0.83592 1.637,-1.86994 2.0019,-2.75781 0.499,-1.21416 0.6608,-3.08188 0.7129,-4.66602 0.052,-1.58414 -0.016,-2.8789 -0.016,-2.8789 z"
         mask="url(#mask3317)"
         transform="matrix(-0.95083626,0,0,0.95083626,1593.8099,-107.54178)" />
      <g
         id="g2507"
         transform="matrix(0.49187818,-0.283986,0.48880806,0.28221347,78.562954,562.83269)"
         style="fill:#aa8800;fill-opacity:1;stroke-width:1.46898">
        <path
           style="fill:#aa8800;fill-opacity:1;stroke:none;stroke-width:0.388665"
           d="m 1258.9881,107.64937 c -1.2141,-0.48992 0.1255,-2.06194 2.2514,-2.64197 0.7505,-0.20478 2.1981,-0.76432 3.2167,-1.24342 1.9875,-0.9348 2.4261,-1.89893 1.1697,-2.57134 -1.1545,-0.61787 -5.1887,-0.44233 -6.6518,0.28944 -1.9421,0.97136 -3.5834,1.21531 -3.8312,0.56947 -0.2718,-0.70839 0.2203,-1.2421 3.2428,-3.516906 3.7682,-2.83602 6.628,-3.44649 12.3323,-2.63249 5.8199,0.83048 6.059,1.4764 1.9866,5.367076 -1.5267,1.45863 -3.6301,3.22991 -4.6743,3.93618 -2.8538,1.93037 -7.322,3.13805 -9.0422,2.44396 z"
           id="path2194-5" />
        <path
           style="fill:#aa8800;fill-opacity:1;stroke:none;stroke-width:0.388665"
           d="m 1231.4245,157.75496 c -2.5742,-1.80304 -2.4343,-7.76726 0.3382,-14.42733 2.47,-5.93318 7.7819,-13.21962 9.6373,-13.21962 0.8913,0 0.671,0.6986 -1.0572,3.35138 -1.8266,2.80389 -4.7406,8.66015 -5.6171,11.28889 -1.1678,3.5022 -1.0302,7.23195 0.2669,7.23195 0.2252,0 1.1007,-0.75407 1.9456,-1.6757 l 1.5362,-1.67569 -0.2107,1.76389 c -0.6851,5.73611 -4.0261,9.33259 -6.8392,7.36223 z"
           id="path2192-2" />
        <path
           style="fill:#aa8800;fill-opacity:1;stroke:none;stroke-width:0.388665"
           d="m 1273.4749,174.73866 c -4.0213,-1.71836 -3.234,-12.16038 1.6776,-22.25053 0.9501,-1.95198 2.127,-3.92434 2.6153,-4.38303 0.8699,-0.81727 0.8877,-0.8192 0.8877,-0.0962 0,0.40575 -0.6146,2.45748 -1.3658,4.55941 -2.5218,7.05643 -3.3397,13.09351 -2.0421,15.07385 1.0453,1.59526 2.2576,1.08987 3.5624,-1.48509 0.3259,-0.64296 0.7816,-1.10697 1.0127,-1.03113 1.3703,0.44963 -0.076,6.07505 -2.1318,8.29199 -1.5324,1.65241 -2.633,1.99721 -4.216,1.32077 z"
           id="path2184-6" />
        <path
           style="fill:#aa8800;fill-opacity:1;stroke:none;stroke-width:0.388665"
           d="m 1188.7326,168.68674 c -1.1293,4.31179 -2.5155,12.00147 -2.8429,15.77165 -0.1656,1.9057 -0.4047,3.63272 -0.5315,3.83782 -0.3418,0.55308 -0.8281,0.45309 -1.1888,-0.24446 -0.1756,-0.33954 -0.8329,-2.12548 -1.4607,-3.96875 -2.0163,-6.4673 -1.7319,-6.84135 -4.0985,-9.23943 -1.7067,-1.72941 -4.6969,-0.99578 -6.6235,-3.04347 -0.7218,-0.81179 -1.1455,-3.38457 -0.7904,-4.79941 0.5221,-2.08017 4.0229,-2.09786 6.387,-0.40517 2.7016,1.93434 5.2759,5.57214 6.5679,7.4983 0.3976,0.64336 0.8368,1.16974 0.9758,1.16974 1.5436,-3.43356 1.83,-7.82301 2.1782,-9.59173 0.1835,-0.63983 0.4492,-3.16036 1.1049,-4.59146 0.6814,-1.48716 1.4461,-2.99205 2.8639,-3.98513 0.9599,-0.76745 2.1651,-0.41936 2.919,0.19934 0.9407,0.7802 1.5313,2.52116 1.7499,5.15863 0.3016,3.63958 -1.0153,4.34145 -2.5564,3.56181 -1.2336,-0.6241 -1.4205,-3.44741 -2.5533,-3.26847 -1.157,0.25585 -1.5631,3.88832 -2.1006,5.94019 z"
           id="path2182-5" />
        <path
           style="fill:#aa8800;fill-opacity:1;stroke:none;stroke-width:0.388665"
           d="m 1115.0692,193.47667 c -1.1942,-1.0944 -1.3098,-1.37326 -1.4441,-3.48244 -0.1683,-2.6424 0.4864,-5.28064 2.1188,-8.53862 1.9856,-3.96294 5.7001,-8.62312 6.8956,-8.65115 0.7565,-0.0178 0.4876,0.88546 -0.7434,2.49775 -4.0338,5.28279 -5.8449,11.13011 -4.3578,14.06934 0.6592,1.30297 1.4476,1.25302 3.0483,-0.19316 1.5822,-1.42935 1.7265,-1.26062 0.8409,0.98289 -0.791,2.00394 -1.8417,3.40669 -3.0038,4.01028 -1.4028,0.72859 -1.9176,0.62195 -3.3545,-0.69489 z"
           id="path2180-8" />
        <path
           id="path2264-7"
           style="fill:#aa8800;fill-opacity:1;stroke:none;stroke-width:0.388665"
           d="m 1131.7983,177.06369 c -0.3105,0.0379 -0.6297,0.14153 -0.9504,0.31317 -2.0507,1.09754 -4.2561,6.10611 -4.3082,9.78493 -0.032,2.22707 0.3439,3.24665 1.7523,4.75733 l 0.892,0.95653 -1.5467,2.04174 c -4.0636,5.36331 -11.6652,11.86098 -19.1973,16.40985 -2.5981,1.56909 -4.2255,3.20408 -3.9372,3.95531 0.4258,1.10956 2.1139,0.49267 7.4724,-2.73058 6.7479,-4.05908 12.1045,-8.69351 15.8874,-13.74593 1.4868,-1.98575 2.8294,-3.74601 2.9833,-3.91139 0.1538,-0.16539 0.8878,0.1126 1.6309,0.61753 0.7431,0.50494 1.7855,0.91829 2.3172,0.91829 0.8679,0 1.0241,-0.19798 1.5301,-1.93838 0.6976,-2.39981 0.4795,-3.13316 -1.2775,-4.29586 -0.7606,-0.50339 -1.3828,-1.03368 -1.3828,-1.17822 0,-0.14455 0.2641,-0.87754 0.587,-1.62884 0.9076,-2.11128 0.8639,-7.34674 -0.075,-8.95036 -0.5916,-1.01061 -1.4462,-1.48885 -2.3776,-1.37512 z m -1.0904,4.74442 c 0.2157,0.0101 0.4374,0.12803 0.7674,0.35915 0.2182,0.15285 0.3904,0.35219 0.5162,0.59841 0.1259,0.24623 0.2056,0.53923 0.2393,0.88109 0.034,0.34186 0.021,0.73225 -0.037,1.17202 -0.058,0.43977 -0.1622,0.92922 -0.3121,1.46916 -0.1011,0.3638 -0.2208,0.69355 -0.3323,0.93224 -0.1115,0.23869 -0.215,0.38606 -0.2832,0.38448 -0.1839,-0.004 -0.4371,-0.10646 -0.7162,-0.26976 -0.2792,-0.16329 -0.5844,-0.38739 -0.8728,-0.63562 -0.2885,-0.24822 -0.5602,-0.5206 -0.7721,-0.77979 -0.2118,-0.25919 -0.3636,-0.50557 -0.4129,-0.70177 -0.065,-0.25885 -0.073,-0.53832 -0.032,-0.8232 0.041,-0.28489 0.1323,-0.57486 0.2656,-0.85525 0.1334,-0.28039 0.3092,-0.55096 0.5199,-0.79633 0.2107,-0.24538 0.4566,-0.46563 0.7302,-0.64544 0.1532,-0.1007 0.2822,-0.17585 0.4,-0.22428 0.1177,-0.0484 0.2239,-0.0702 0.3317,-0.0651 z" />
        <path
           style="fill:#aa8800;fill-opacity:1;stroke:none;stroke-width:0.388665"
           d="m 1142.2857,227.30009 c -3.1557,-3.3461 -2.2584,-11.50669 2.289,-20.8157 3.7431,-7.66274 7.7495,-10.73162 4.3052,-3.2978 -2.8751,6.20516 -3.9755,9.68854 -4.1623,13.17558 -0.1842,3.43952 0.2718,4.58612 1.824,4.58612 0.8435,0 1.3004,-0.35062 2.4294,-1.8641 1.8401,-2.46686 2.2224,-2.02086 1.4664,1.71046 -1.0553,5.20817 -2.8794,7.73836 -5.5788,7.73836 -1.1541,0 -1.6211,-0.22379 -2.5729,-1.23292 z"
           id="path2174-9" />
        <path
           style="fill:#aa8800;fill-opacity:1;stroke:none;stroke-width:0.388665"
           d="m 1236.7559,230.66374 c -2.9946,-2.49759 -2.527,-9.65727 1.144,-17.51289 2.3485,-5.02571 5.0584,-8.60674 6.513,-8.60674 0.6967,0 0.3846,0.94141 -1.8841,5.68327 -3.6427,7.61352 -4.9376,12.82153 -3.5361,14.22296 1.5322,1.53227 3.4572,0.88691 4.5442,-1.52349 0.9304,-2.06333 1.3864,-1.83543 1.1586,0.57908 -0.2329,2.46844 -1.2211,4.84344 -2.7306,6.5627 -1,1.13891 -1.3179,1.28526 -2.7689,1.27487 -1.0776,-0.008 -1.9135,-0.24058 -2.4401,-0.67976 z"
           id="path2172-6" />
        <path
           style="fill:#aa8800;fill-opacity:1;stroke:none;stroke-width:0.388665"
           d="m 1273.45,244.71837 c -4.1358,-1.19396 -4.6308,-10.23616 -1.0405,-19.00758 2.0509,-5.01068 6.5501,-11.64168 7.899,-11.64168 0.8101,0 0.3313,1.48023 -1.4848,4.58989 -4.5437,7.78024 -6.2366,18.34859 -3.1302,19.54065 1.0355,0.39735 1.835,-0.12845 2.9495,-1.93968 1.4172,-2.30332 1.9147,-1.98427 1.6949,1.08717 -0.2054,2.87042 -1.6228,5.76431 -3.4103,6.96275 -1.2937,0.86741 -1.716,0.91702 -3.4776,0.40848 z"
           id="path2170-0" />
        <path
           style="fill:#aa8800;fill-opacity:1;stroke:none;stroke-width:0.388665"
           d="m 1381.5382,254.55037 c -2.3523,-2.27242 -2.8638,-5.48006 -1.7943,-11.24991 0.9929,-5.35604 4.2319,-14.31713 6.6929,-18.5165 0.8943,-1.52601 2.6959,-2.82491 3.3541,-2.41815 0.6348,0.39233 0.3443,1.39008 -1.436,4.93248 -2.8393,5.64949 -4.5716,11.98586 -4.5716,16.72214 0,3.21818 0.8944,5.06637 2.5453,5.25942 0.9788,0.11445 1.4201,-0.38507 2.2785,-2.57878 l 0.4142,-1.05833 0.027,0.9391 c 0.038,1.33472 -0.9138,6.11361 -1.4088,7.07326 -0.8713,1.68862 -1.8164,2.39458 -3.2058,2.39458 -1.1019,0 -1.6225,-0.26958 -2.8954,-1.49931 z"
           id="path2168-4" />
        <path
           style="fill:#aa8800;fill-opacity:1;stroke:none;stroke-width:0.388665"
           d="m 1162.1965,253.03094 c -2.208,-2.04837 -4.0725,-3.88907 -4.1434,-4.09045 -0.071,-0.20139 0.4988,-1.02577 1.2657,-1.83196 0.767,-0.80618 2.3829,-2.69611 3.591,-4.19982 1.6534,-2.05793 2.4086,-2.73403 3.0541,-2.73403 0.5872,0 2.0293,1.05656 4.5743,3.35139 2.0442,1.84326 3.7909,3.35139 3.8815,3.35139 0.091,0 1.786,-1.50813 3.7673,-3.35139 1.9814,-1.84326 3.8845,-3.35139 4.2292,-3.35139 0.9388,0 8.3976,7.04693 8.3976,7.93394 0,1.15518 -6.8727,7.58828 -8.1068,7.58828 -0.3831,0 -2.0892,-1.26579 -3.7914,-2.81287 -1.9203,-1.7454 -3.3976,-2.81643 -3.8927,-2.82223 -0.5292,-0.006 -2.0015,1.11923 -4.3721,3.34205 -1.9658,1.84326 -3.7689,3.35138 -4.0069,3.35138 -0.2381,0 -2.2394,-1.67593 -4.4474,-3.72429 z"
           id="path2166-1" />
        <path
           id="path2267-0"
           style="fill:#aa8800;fill-opacity:1;stroke:none;stroke-width:0.388665"
           d="m 1318.2933,114.65459 c -0.8641,-0.12365 -1.5148,1.04142 -3.3093,5.92832 l -1.1007,2.99878 0.3715,4.05712 c 0.2045,2.23132 0.4653,7.54927 0.5793,11.81788 0.3515,13.16046 1.1721,76.51459 0.9948,76.80151 -0.2962,0.47922 -6.5486,4.72894 -10.2604,6.97375 -1.9813,1.19829 -4.0851,2.72788 -4.6746,3.39927 -1.1463,1.30553 -1.3885,2.5079 -0.5685,2.82257 0.9311,0.35727 6.3344,-2.44922 12.4122,-6.44715 1.5736,-1.03513 2.9626,-1.88206 3.0867,-1.88206 0.124,0 0.2368,6.15191 0.2506,13.67049 0.06,6.50539 1.4254,13.56743 -0.9457,21.5377 -0.4463,2.23148 0.9759,0.98798 2.6474,-2.31459 1.1779,-2.32747 2.3643,-5.86214 3.5217,-10.49186 1.7064,-6.82581 2.2493,-11.49075 2.3585,-20.26337 l 0.099,-7.91632 2.0563,-1.78439 c 1.9522,-1.69403 3.8182,-3.60989 5.2916,-5.43326 0.6606,-0.81744 0.6788,-0.81945 1.9746,-0.20153 0.7192,0.34295 1.3708,0.5556 1.4485,0.47232 0.078,-0.0833 0.6448,-1.34175 1.2604,-2.79621 l 1.1193,-2.64429 -0.8759,-0.70693 -0.8765,-0.70693 0.9302,-2.11667 c 0.7649,-1.74077 0.9323,-2.65935 0.9431,-5.17385 0.012,-2.78361 -0.066,-3.14209 -0.8687,-4.00233 -0.7968,-0.85365 -1.0751,-0.93111 -2.883,-0.80254 -3.9115,0.27818 -7.3204,3.4578 -7.6233,7.11119 -0.1905,2.29662 0.29,3.88102 1.9022,6.27662 l 1.2118,1.80144 -1.6836,1.80454 c -1.9085,2.04535 -3.5972,3.53703 -3.7869,3.34502 -0.345,-0.3494 -1.5875,-50.31928 -1.5973,-64.24672 0,-3.24997 0.1149,-5.89586 0.2605,-5.87975 0.1455,0.0161 1.0586,0.99309 2.0288,2.17093 2.3671,2.87395 3.4947,3.70402 4.2168,3.10472 0.3,-0.24898 0.5457,-0.80037 0.5457,-1.22525 0,-1.38927 -5.9247,-19.52828 -8.3613,-25.59895 -1.0523,-2.62192 -1.5083,-3.37521 -2.0954,-3.45922 z m 12.8008,80.46227 c 0.2533,-0.0577 0.5265,-0.0557 0.7767,0.0155 0.1251,0.0356 0.2448,0.0882 0.353,0.15968 0.1081,0.0715 0.2049,0.16196 0.2852,0.27182 0.1411,0.19302 0.2485,0.36601 0.323,0.53589 0.074,0.16987 0.1159,0.33651 0.1256,0.51676 0.01,0.18025 -0.012,0.37376 -0.066,0.5979 -0.053,0.22413 -0.1381,0.47878 -0.2527,0.78031 -0.095,0.24885 -0.2139,0.47522 -0.3297,0.63924 -0.1159,0.16401 -0.2284,0.26561 -0.3096,0.26561 -0.1242,0 -0.3014,-0.12778 -0.4971,-0.33124 -0.1957,-0.20346 -0.4099,-0.48265 -0.6088,-0.78548 -0.1988,-0.30283 -0.3821,-0.62897 -0.5157,-0.92708 -0.1336,-0.2981 -0.2175,-0.56778 -0.2175,-0.75706 0,-0.12816 0.027,-0.24644 0.075,-0.35346 0.048,-0.10703 0.1165,-0.20286 0.2015,-0.28629 0.1699,-0.16686 0.4035,-0.2844 0.6568,-0.3421 z" />
        <path
           style="fill:#aa8800;fill-opacity:1;stroke:none;stroke-width:0.388665"
           d="m 1100.1504,272.54205 c 2e-4,-0.24255 0.9532,-1.60669 2.1177,-3.03144 2.8444,-3.47999 4.5602,-6.62443 4.8223,-8.83738 0.2855,-2.41047 -0.178,-2.996 -1.8264,-2.30723 -4.0291,1.68346 -2.7734,-3.42364 1.365,-5.55163 1.6256,-0.83589 2.8016,-0.64061 3.6146,0.60026 0.8674,1.32384 0.5072,5.96912 -0.7118,9.17879 -1.0688,2.81419 -4.1974,7.19871 -6.5048,9.11603 -1.5329,1.27376 -2.8774,1.66291 -2.8766,0.8326 z"
           id="path2160-4" />
        <path
           style="fill:#aa8800;fill-opacity:1;stroke:none;stroke-width:0.388665"
           d="m 1328.7923,275.04286 c -3.6387,-2.79212 -6.8756,-4.88206 -7.5613,-4.88206 -0.4072,0 -1.8653,1.23179 -3.5532,3.00159 -2.2077,2.31497 -3.079,3.0009 -3.8086,2.9986 -0.6662,-0.003 -1.9517,-0.84849 -4.3455,-2.86118 -3.5695,-3.00119 -4.2808,-3.96335 -3.9385,-5.32717 0.299,-1.19147 7.0098,-7.68963 7.9412,-7.68963 0.7749,0 4.5608,2.98526 6.7909,5.35473 0.6978,0.74142 1.4371,1.34806 1.6428,1.34806 0.2058,0 2.0379,-1.77851 4.0714,-3.95222 3.2315,-3.45432 3.7889,-3.90985 4.4244,-3.61597 1.1787,0.54502 8.1273,6.8722 8.3631,7.61515 0.1253,0.39478 -0.063,1.1226 -0.4476,1.73003 -1.0009,1.58089 -6.7886,7.74883 -7.2649,7.74224 -0.229,-0.003 -1.2704,-0.66114 -2.3142,-1.46217 z"
           id="path2158-8" />
        <path
           style="fill:#aa8800;fill-opacity:1;stroke:none;stroke-width:0.388665"
           d="m 1136.6711,280.95392 c -1.5002,-1.5907 -2.102,-3.83815 -1.8458,-6.8937 0.3578,-4.26749 3.1145,-11.27566 6.2577,-15.90809 2.9141,-4.29498 3.3096,-3.37698 0.7488,1.73828 -2.6345,5.26254 -3.3913,7.79807 -3.399,11.38756 -0.01,2.75484 0.078,3.14767 0.8488,3.96875 0.4704,0.5012 1.1286,0.91128 1.4627,0.91128 0.6639,0 2.6255,-2.05915 3.2341,-3.39479 1.1528,-2.53024 1.344,1.314 0.2164,4.35171 -1.0561,2.84512 -3.2612,5.04031 -5.063,5.04031 -1.0534,0 -1.5618,-0.24823 -2.4607,-1.20131 z"
           id="path2156-7" />
        <path
           style="fill:#aa8800;fill-opacity:1;stroke:none;stroke-width:0.388665"
           d="m 1289.2503,287.52879 c -0.734,-0.59577 -0.7989,-0.79285 -0.4139,-1.2568 0.2512,-0.3026 1.3573,-0.72483 2.458,-0.93827 2.7551,-0.53419 4.8002,-1.31466 5.5152,-2.10476 0.5703,-0.63008 0.5617,-0.68619 -0.1634,-1.07426 -1.5318,-0.81978 -4.3732,-0.83812 -6.9843,-0.045 -1.3601,0.41309 -2.6201,0.7511 -2.8001,0.7511 -0.3988,0 -0.3411,-1.29062 0.075,-1.66852 1.1947,-2.58719 4.7976,-4.17712 6.4727,-4.66736 1.7845,-0.47717 5.5139,-0.0498 9.3152,1.06755 3.6135,1.06209 3.9688,2.24792 1.4729,4.91617 -2.9856,3.19182 -6.9982,5.07198 -11.7659,5.51299 -1.9829,0.18341 -2.4339,0.11353 -3.181,-0.49284 z"
           id="path2154-0"
           sodipodi:nodetypes="sssssssccsssss" />
        <path
           id="path2261-8"
           style="fill:#aa8800;fill-opacity:1;stroke:none;stroke-width:0.388665"
           d="m 1224.6029,247.21942 c -2.1287,0 -4.7323,3.45084 -5.8265,7.72201 -0.751,2.93148 -0.3443,4.09486 2.219,6.34328 l 1.9756,1.73271 -1.1447,1.44539 c -1.7616,2.22422 -9.7089,9.22049 -27.1688,23.91843 -6.1183,5.15038 -7.3158,6.41022 -6.9645,7.32565 0.1935,0.50416 0.3468,0.51035 1.4273,0.0589 2.349,-0.98149 5.0027,-2.87596 16.7344,-11.9486 11.0017,-8.50802 13.7012,-11.15556 17.4573,-17.11885 1.3452,-2.13558 1.4235,-2.19617 2.1431,-1.66708 1.4205,1.04457 2.8649,1.93987 3.1285,1.94252 0.1455,7.9e-4 0.5819,-0.31629 0.9699,-0.70435 0.5145,-0.51443 0.7054,-1.17566 0.7054,-2.44171 0,-1.62691 -0.1021,-1.8242 -1.6195,-3.12126 l -1.6196,-1.38441 0.4553,-2.70837 c 0.8222,-4.8931 -0.5541,-9.39425 -2.8722,-9.39425 z m -0.6702,5.76037 c 0.2525,0.0704 0.4664,0.21976 0.6449,0.45165 0.1785,0.23189 0.3218,0.54632 0.432,0.94723 0.1103,0.40091 0.1878,0.88855 0.2357,1.46606 0.049,0.5937 0.055,1.08308 0.021,1.4242 -0.017,0.17056 -0.043,0.304 -0.079,0.39481 -0.036,0.0908 -0.082,0.13901 -0.1354,0.13901 -0.098,0 -0.3302,-0.15901 -0.6258,-0.41496 -0.2957,-0.25595 -0.6543,-0.60851 -1.0051,-0.99684 -0.3894,-0.43099 -0.6903,-0.83738 -0.9018,-1.20975 -0.2115,-0.37236 -0.3337,-0.71117 -0.3654,-1.00614 -0.016,-0.14748 -0.01,-0.28363 0.02,-0.40824 0.03,-0.12461 0.082,-0.23753 0.1571,-0.33693 0.075,-0.0994 0.1731,-0.18552 0.2941,-0.25735 0.1209,-0.0718 0.265,-0.12912 0.432,-0.17105 0.3323,-0.0834 0.6229,-0.0921 0.8754,-0.0217 z" />
        <path
           style="fill:#aa8800;fill-opacity:1;stroke:none;stroke-width:0.388665"
           d="m 1268.6601,318.9617 c -0.8846,-0.8846 0.7407,-2.89755 5.1612,-6.39204 1.7794,-1.40673 1.9626,-1.65989 1.4111,-1.95024 -1.3972,-0.73549 -3.2818,-2.89317 -3.4883,-3.99368 -0.6508,-3.46903 4.5365,-10.44617 9.8207,-13.20922 5.9022,-3.08623 10.7627,1.77697 6.5599,6.56363 -1.2712,1.4478 -2.0011,1.53326 -3.1005,0.36301 -1.9924,-2.12083 -4.3538,-2.36676 -6.3771,-0.66419 -1.963,1.65169 -1.2271,3.79683 1.983,5.78078 1.8429,1.13898 4.3783,1.39203 9.6916,0.96732 4.3696,-0.34928 4.8699,-0.32838 5.7368,0.23966 1.2335,0.80825 1.5382,2.05105 0.7848,3.20098 -0.7335,1.11943 -2.5103,2.22377 -3.9003,2.42411 -10.2757,1.48103 -13.2331,2.26891 -18.6972,4.98113 -3.661,1.81718 -5.0402,2.23417 -5.5857,1.68875 z"
           id="path2148-6" />
        <path
           style="fill:#aa8800;fill-opacity:1;stroke:none;stroke-width:0.388665"
           d="m 1212.9382,319.73241 c -2.1294,-2.19252 -3.4216,-5.54368 -3.4252,-8.88296 0,-5.07217 2.8995,-13.77191 5.5175,-16.5234 l 1.007,-1.05833 0.1125,0.97989 c 0.062,0.5389 -0.3718,2.53899 -0.9638,4.44462 -0.5921,1.90564 -1.2453,4.63969 -1.4516,6.07569 -0.7058,4.91146 0.5454,9.84287 2.4972,9.84287 0.3378,0 1.2602,-0.75406 2.0497,-1.67571 1.355,-1.58176 1.4362,-1.62441 1.4478,-0.76078 0.029,2.15601 -2.5112,7.70744 -3.8561,8.42721 -1.1058,0.5918 -1.6819,0.42119 -2.935,-0.8691 z"
           id="path2146-2" />
        <path
           style="fill:#aa8800;fill-opacity:1;stroke:none;stroke-width:0.388665"
           d="m 1188.1331,318.03048 c -4.4072,-4.27186 -4.4752,-4.36147 -4.2443,-5.59242 0.2341,-1.2477 5.6736,-9.46894 6.2651,-9.46894 0.521,0 8.3971,7.46263 9.1334,8.654 0.9058,1.46568 0.8763,2.13309 -0.1757,3.97316 -1.3832,2.41927 -5.1499,6.77561 -5.8586,6.77561 -0.3526,0 -2.6565,-1.95363 -5.1199,-4.34141 z"
           id="path2144-4" />
        <path
           style="fill:#aa8800;fill-opacity:1;stroke:none;stroke-width:0.388665"
           d="m 1363.2986,323.57818 c -0.3704,-0.44622 -0.3821,-0.99221 -0.059,-2.73402 2.3929,-12.89732 2.2916,-9.7119 2.4523,-77.09043 l 0.146,-61.15568 -0.7649,-2.51827 c -0.5051,-1.66287 -0.6986,-2.99842 -0.5696,-3.93183 0.2568,-1.85931 3.3328,-10.41218 4.0291,-11.20314 0.7139,-0.81105 1.4734,-0.79716 1.2589,0.0231 -0.092,0.35222 0.8911,3.48753 2.1848,6.96736 1.2938,3.47982 3.1216,8.47008 4.0616,11.08945 1.77,4.9316 3.4965,9.60285 4.2509,11.50145 0.4868,1.22492 0.2662,2.16414 -0.585,2.49076 -0.3946,0.15144 -1.3946,-0.60406 -3.279,-2.47744 -1.4912,-1.48242 -2.9101,-2.69532 -3.1531,-2.69532 -0.2431,0 -0.5757,0.35719 -0.7392,0.79375 -0.1675,0.44723 0.056,13.73059 0.5109,30.4271 1.8575,68.10495 1.8594,65.0336 -0.047,76.63019 -1.769,10.76464 -5.9146,22.83072 -8.2786,24.0959 -0.8382,0.44858 -0.8754,0.443 -1.4197,-0.21288 z"
           id="path2142-7" />
        <path
           style="fill:#aa8800;fill-opacity:1;stroke:none;stroke-width:0.388665"
           d="m 1164.0561,331.59619 c -3.2062,-3.44948 -3.3618,-13.50057 -0.3449,-22.27707 0.5669,-1.64925 1.0628,-3.31613 1.1021,-3.70416 0.1273,-1.25849 -1.742,-0.69797 -6.2514,1.87446 -4.9603,2.82972 -5.2788,2.96342 -5.8051,2.43713 -1.0663,-1.06635 -0.088,-2.83331 2.5286,-4.56488 1.8605,-1.23142 23.4218,-13.77646 25.5943,-14.89155 1.6101,-0.82644 2.173,-0.52398 2.173,1.16766 0,1.79692 -0.6812,2.37101 -6.566,5.53331 -6.1769,3.31923 -7.825,4.94769 -9.0816,8.97303 -1.4772,4.73186 -2.0052,7.61844 -2.2312,12.19782 -0.2385,4.8336 0.3594,7.67692 1.7039,8.10369 0.8135,0.25818 2.1747,-0.8341 2.9883,-2.39805 0.2776,-0.53356 0.7388,-0.97012 1.0249,-0.97012 0.6244,0 0.6314,0.14589 0.1234,2.54026 -0.803,3.78439 -3.155,6.98474 -5.1333,6.98474 -0.5246,0 -1.2736,-0.41299 -1.825,-1.00627 z"
           id="path2140-9" />
        <path
           style="fill:#aa8800;fill-opacity:1;stroke:none;stroke-width:0.388665"
           d="m 1124.7413,336.37052 c -0.2798,-0.72924 0.8925,-3.68062 2.9059,-7.31605 2.2621,-4.08445 2.5394,-5.30177 1.3906,-6.10642 -0.4524,-0.31689 -1.4129,-0.57616 -2.1344,-0.57616 -1.6011,0 -1.871,-0.37211 -1.3704,-1.88899 0.4684,-1.41912 1.9738,-2.9165 3.2488,-3.23149 1.3887,-0.34308 4.0782,0.94599 4.5709,2.19086 0.8627,2.17942 -1.4028,8.08318 -4.864,12.6756 -0.8589,1.13964 -1.9007,2.6674 -2.3152,3.395 -0.8002,1.40489 -1.1433,1.61039 -1.4322,0.85765 z"
           id="path2138-3" />
        <path
           style="fill:#aa8800;fill-opacity:1;stroke:none;stroke-width:0.388665"
           d="m 1255.725,389.57344 c 0,-0.0984 1.5539,-2.44001 3.4531,-5.20345 1.8993,-2.76347 3.6505,-5.47929 3.8915,-6.03515 0.9829,-2.26674 -0.582,-3.22114 -3.3059,-2.01623 -1.2656,0.5598 -1.7842,0.6419 -2.148,0.33994 -0.708,-0.58759 -0.5797,-2.02214 0.3616,-4.04366 1.3717,-2.9459 3.4312,-4.07299 6.1196,-3.34907 2.1642,0.58277 3.097,1.82444 3.075,4.09342 -0.034,3.54833 -4.7825,11.48586 -9.0619,15.14893 -1.2824,1.09763 -2.385,1.59015 -2.385,1.06527 z"
           id="path2130-9" />
        <path
           style="fill:#aa8800;fill-opacity:1;stroke:none;stroke-width:0.388665"
           d="m 1301.7718,176.16557 c -4.0213,-1.71836 -3.234,-12.16038 1.6776,-22.25053 0.9502,-1.95199 2.1271,-3.92435 2.6153,-4.38303 0.87,-0.81728 0.8878,-0.81921 0.8878,-0.0963 0,0.40576 -0.6146,2.4575 -1.3658,4.55943 -2.5218,7.05641 -3.3397,13.09349 -2.0421,15.07384 1.0452,1.59526 2.2576,1.08988 3.5624,-1.48508 0.3258,-0.64296 0.7815,-1.10699 1.0127,-1.03113 1.3703,0.44963 -0.076,6.07504 -2.1319,8.29199 -1.5323,1.6524 -2.633,1.99721 -4.216,1.32077 z"
           id="path2043-4-2" />
        <path
           style="fill:#aa8800;fill-opacity:1;stroke:none;stroke-width:0.388665"
           d="m 1296.6683,367.17866 c -2.4744,3.79002 -6.1494,10.7529 -7.5373,14.28096 -0.7016,1.78329 -1.4422,3.37048 -1.6457,3.52708 -0.5489,0.42228 -1.0937,0.16815 -1.332,-0.62124 -0.116,-0.38428 -0.4132,-2.31905 -0.6606,-4.2995 -0.6487,-6.88825 -0.215,-7.15653 -2.3581,-10.23583 -1.5455,-2.22071 -7.0361,-0.67866 -8.7553,-3.27748 -0.6323,-1.01666 -6e-4,-7.27511 0.7932,-8.52376 1.167,-1.83584 6.622,1.11887 8.9499,3.5174 2.6601,2.74092 4.7175,7.08263 5.7233,9.35847 0.2961,0.74914 0.6721,1.39896 0.8355,1.44407 2.7275,-2.80911 4.2321,-6.94743 5.1118,-8.53943 0.3859,-0.55724 1.3687,-2.90073 2.5201,-4.06757 1.1964,-1.21253 2.4956,-2.41509 4.426,-2.91248 1.3321,-0.42844 2.6559,0.29805 3.3772,1.13898 0.8979,1.05722 3.2242,3.82592 2.7793,6.43921 -0.614,3.60622 -2.3483,3.85562 -3.9519,2.60419 -1.2837,-1.00176 -2.7532,-4.03646 -4.795,-3.85186 -1.7649,0.15957 -2.3029,2.2152 -3.4804,4.01879 z"
           id="path2182-7-8"
           sodipodi:nodetypes="sssscscsscccsccssas" />
        <path
           id="path2258-3"
           style="fill:#aa8800;fill-opacity:1;stroke:none;stroke-width:0.388665"
           d="m 1234.53,95.583404 c -22.5382,8.176066 -45.0623,17.020666 -66.212,28.405496 -6.829,5.64191 -3.5994,15.42188 0.1212,19.47895 -11.34,7.13867 -32.703,10.31199 -30.8417,27.65951 2.2618,14.27122 20.2803,18.74452 28.5853,29.42377 5.9809,4.63955 13.6573,9.51072 3.6123,13.4916 -14.7483,10.913 -25.432,26.75763 -41.0727,36.37875 -17.8785,5.59335 -11.4535,-20.9709 -6.1229,-29.48249 2.2238,-7.11739 10.1133,-16.12582 10.2326,-21.32587 -8.5416,8.23382 -14.0107,20.11589 -18.1021,31.36718 -5.1604,10.65115 -0.626,23.41779 4.5055,31.00321 -6.6949,13.74969 -14.3437,31.71969 -4.9114,45.90475 9.1254,13.06562 24.2166,-5.80986 28.9018,-8.11052 -4.9817,15.14698 -9.6138,34.29847 1.1313,48.02646 15.9873,17.66797 43.2838,14.33541 62.9418,5.3181 14.9792,-11.40622 1.5251,13.07174 6.7547,20.93145 2.6557,17.25544 22.8966,13.87377 30.3284,2.00231 12.504,-12.16255 23.665,-27.00406 41.0525,-32.43217 9.633,-2.00417 24.3504,-15.0118 25.9949,1.73707 5.631,12.32585 21.945,9.20728 29.4021,0.55104 12.6623,-12.32807 11.4561,-31.72632 12.1594,-48.04482 0.2326,-45.66142 -2.3441,-91.28362 -2.9771,-136.92911 3.3958,5.58406 11.7409,10.98945 6.8799,-0.004 -4.0393,-6.07263 -4.803,-21.35003 -11.4719,-22.1389 -6.8034,11.31359 -0.5176,24.65118 -2.2302,37.0864 0.6311,51.23963 1.3723,102.47894 1.6096,153.72239 -3.77,12.10831 -24.9303,16.09373 -29.5706,3.01038 14.4614,-8.33168 22.3206,-38.37735 8.4958,-44.23266 -9.8148,-4.15687 -18.9941,15.22448 -18.3573,26.18172 -0.6698,5.0273 2.4551,12.67381 -5.1359,12.64687 -17.278,4.8032 -34.0331,12.68691 -46.1012,26.32602 -9.6458,8.35834 -16.8952,23.11921 -30.6255,24.44258 -11.3803,-6.75841 -6.5298,-26.46294 0.4685,-34.81139 11.203,-7.60815 19.6702,-21.44154 14.9183,-35.19654 -0.4521,-7.6652 -11.639,-25.91809 2.6085,-18.64262 -3.3037,-4.61257 -11.3284,-20.25312 -15.1618,-16.88545 -4.3788,13.3322 5.3722,26.09442 7.3894,39.24025 7.2575,14.70528 -11.628,21.21083 -21.5503,26.90569 -18.0442,8.69376 -42.106,16.24957 -59.6532,2.68827 -13.1396,-11.97313 -11.096,-33.00208 -3.9139,-47.61402 10.1313,-10.1028 23.3034,-16.51777 37.3629,-18.88511 11.1162,-2.34285 22.9389,-9.48684 22.9486,-22.20127 2.3464,-9.5363 -5.3858,-23.57098 -6.4664,-28.93961 15.979,13.83343 31.8615,27.79351 48.3286,41.04681 -0.4305,27.5522 1.4874,55.31115 -2.706,82.63867 2.8703,5.13741 7.473,-13.12603 8.3118,-18.43056 3.3083,-19.15387 1.0498,-38.70325 2.0129,-58.02554 11.2562,8.38632 31.1197,6.40724 35.018,-9.03642 7.152,-20.08017 2.5773,-41.81478 2.8505,-62.61645 -0.7049,-23.96998 -1.7606,-47.93412 -2.2097,-71.90892 7.2482,10.51949 9.1421,0.57943 4.3955,-6.06159 -3.1672,-6.07668 -8.0239,-28.181456 -12.1129,-10.84125 2.2002,25.2511 1.3261,50.91749 2.4727,76.33083 0.445,22.37314 1.6315,44.74946 1.3528,67.12662 -4.1278,13.91064 -22.3075,12.22547 -30.4167,2.91725 -3.7884,-2.93145 -0.9334,-9.21134 -1.8345,-13.5981 0.059,-18.55036 -0.2871,-37.13456 -0.1229,-55.65573 3.8919,-1.84304 11.3763,9.77649 7.2162,-2.03078 -3.0833,-6.80715 -5.1722,-23.80653 -8.8719,-25.57588 -2.7225,5.24475 -7.1884,10.03448 -5.7776,16.35857 0.1417,24.49573 0.2837,48.99147 0.426,73.48719 -17.3378,-13.74645 -34.9452,-27.33791 -51.9586,-41.38146 10.1168,-4.48401 23.7585,-0.48897 31.6673,2.76831 9.5302,-16.14649 -13.078,-16.10134 -16.2604,-28.69997 -1.0177,-7.9574 -7.4495,-25.39293 5.1096,-20.45391 -2.9175,-6.05345 -12.2202,-30.60418 -13.9831,-11.42537 2.1974,13.3774 0.8896,27.61805 3.887,41.04371 1.7993,6.17256 -15.6004,6.31657 -20.4021,9.36111 -14.8995,-11.9069 -31.2433,-21.91979 -46.4243,-33.37651 6.8856,-8.98696 21.1139,-12.04508 31.3679,-17.7002 25.5499,-10.63435 51.6755,-21.61092 79.3543,-24.85431 11.5237,-3.48029 22.4621,10.24442 7.8226,15.5654 -12.8853,11.30533 -26.7295,23.25103 -32.5954,39.87784 8.2665,-10.8958 18.0661,-21.02712 29.1899,-29.29291 9.8861,-7.73759 22.1082,-20.46794 16.0654,-34.03436 -10.9,-9.78157 -26.7932,-0.75113 -39.0928,1.56587 -21.7635,6.3257 -43.046,14.28272 -63.7006,23.60455 -2.0541,-7.75165 -7.5391,-14.87323 4.4664,-16.88498 18.8959,-9.66092 39.3111,-15.93038 58.5686,-24.64752 1.4342,-0.989306 4.3156,-5.511706 0.6583,-5.213476 z m -51.7255,120.467576 c 9.8823,10.51786 22.2341,21.94002 22.8146,37.21996 -4.8065,10.82032 -18.7806,11.51683 -28.9703,13.7003 -20.789,3.70625 -31.7565,23.41795 -48.3314,34.14278 -8.7423,7.54372 -18.4896,-3.31097 -15.0877,-12.57206 2.336,-8.57713 4.1999,-21.55693 10.7621,-26.79008 13.6565,-2.14037 22.3745,-14.89844 32.5229,-23.18364 8.4119,-7.90855 16.9154,-15.7471 26.2898,-22.51726 z m 137.3819,81.86362 c 8.3993,-0.81524 10.3384,11.722 -1.6844,21.72936 -11.1334,9.72463 -8.6394,-11.37954 -6.3002,-16.92696 1.9993,-4.7411 6.5723,-4.92141 7.9846,-4.8024 z"
           sodipodi:nodetypes="sccccccccccccccccccccccccccacccccccccccccccccccccccccccccccccccccccccccccccccccssccccccccccsc" />
        <path
           style="color:#000000;font-style:normal;font-variant:normal;font-weight:normal;font-stretch:normal;font-size:medium;line-height:normal;font-family:sans-serif;font-variant-ligatures:normal;font-variant-position:normal;font-variant-caps:normal;font-variant-numeric:normal;font-variant-alternates:normal;font-variant-east-asian:normal;font-feature-settings:normal;font-variation-settings:normal;text-indent:0;text-align:start;text-decoration:none;text-decoration-line:none;text-decoration-style:solid;text-decoration-color:#000000;letter-spacing:normal;word-spacing:normal;text-transform:none;writing-mode:lr-tb;direction:ltr;text-orientation:mixed;dominant-baseline:auto;baseline-shift:baseline;text-anchor:start;white-space:normal;shape-padding:0;shape-margin:0;inline-size:0;clip-rule:nonzero;display:inline;overflow:visible;visibility:visible;opacity:1;isolation:auto;mix-blend-mode:normal;color-interpolation:sRGB;color-interpolation-filters:linearRGB;solid-color:#000000;solid-opacity:1;vector-effect:none;fill:#aa8800;fill-opacity:1;fill-rule:nonzero;stroke:none;stroke-width:8.00654;stroke-linecap:round;stroke-linejoin:round;stroke-miterlimit:4;stroke-dasharray:none;stroke-dashoffset:0;stroke-opacity:1;paint-order:markers fill stroke;color-rendering:auto;image-rendering:auto;shape-rendering:auto;text-rendering:auto;enable-background:accumulate;stop-color:#000000;stop-opacity:1"
           d="m 1244.9009,58.820794 c -48.9714,0 -95.9407,19.33558 -130.5734,53.757436 -34.6326,34.42185 -54.0939,81.11592 -54.0939,129.80242 10e-5,48.68648 19.4613,95.38057 54.0939,129.80242 34.6327,34.42184 81.602,53.75742 130.5734,53.75742 48.9714,0 95.9413,-19.33558 130.574,-53.75742 34.6326,-34.42185 54.0938,-81.11594 54.0938,-129.80242 0,-48.6865 -19.4612,-95.38057 -54.0938,-129.80242 -34.6327,-34.421856 -81.6026,-53.757436 -130.574,-53.757436 z m 0,5.45031 c 47.5368,0 93.1229,18.76872 126.7318,52.173036 33.6089,33.40432 52.4852,78.70229 52.4852,125.93651 0,47.2342 -18.8763,92.53218 -52.4852,125.93651 -33.6089,33.40431 -79.195,52.17302 -126.7318,52.17302 -47.5367,0 -93.1224,-18.76871 -126.7313,-52.17302 -33.6089,-33.40433 -52.4856,-78.70231 -52.4856,-125.93651 -10e-5,-47.23421 18.8767,-92.53219 52.4856,-125.93651 33.6089,-33.404316 79.1946,-52.173036 126.7313,-52.173036 z"
           id="path2280-0" />
        <path
           style="color:#000000;font-style:normal;font-variant:normal;font-weight:normal;font-stretch:normal;font-size:medium;line-height:normal;font-family:sans-serif;font-variant-ligatures:normal;font-variant-position:normal;font-variant-caps:normal;font-variant-numeric:normal;font-variant-alternates:normal;font-variant-east-asian:normal;font-feature-settings:normal;font-variation-settings:normal;text-indent:0;text-align:start;text-decoration:none;text-decoration-line:none;text-decoration-style:solid;text-decoration-color:#000000;letter-spacing:normal;word-spacing:normal;text-transform:none;writing-mode:lr-tb;direction:ltr;text-orientation:mixed;dominant-baseline:auto;baseline-shift:baseline;text-anchor:start;white-space:normal;shape-padding:0;shape-margin:0;inline-size:0;clip-rule:nonzero;display:inline;overflow:visible;visibility:visible;opacity:1;isolation:auto;mix-blend-mode:normal;color-interpolation:sRGB;color-interpolation-filters:linearRGB;solid-color:#000000;solid-opacity:1;vector-effect:none;fill:#aa8800;fill-opacity:1;fill-rule:nonzero;stroke:none;stroke-width:18.1897;stroke-linecap:round;stroke-linejoin:round;stroke-miterlimit:4;stroke-dasharray:none;stroke-dashoffset:0;stroke-opacity:1;paint-order:markers fill stroke;color-rendering:auto;image-rendering:auto;shape-rendering:auto;text-rendering:auto;enable-background:accumulate;stop-color:#000000;stop-opacity:1"
           d="m 1244.9009,36.742034 c -54.8503,0 -107.4631,21.65753 -146.2587,60.217 -38.7957,38.559466 -60.601,90.875196 -60.601,145.421616 0,54.54642 21.8053,106.86267 60.601,145.42215 38.7956,38.55946 91.4084,60.21645 146.2587,60.21645 54.8504,0 107.4632,-21.65699 146.2588,-60.21645 38.7231,-38.48743 60.5124,-90.68113 60.5937,-145.11726 a 6.19125,6.19125 0 0 0 0.01,-0.30489 6.19125,6.19125 0 0 0 -0.01,-0.31006 6.19125,6.19125 0 0 0 0,-0.0124 c -0.087,-54.42978 -21.8748,-106.61589 -60.5937,-145.099156 -38.7956,-38.55947 -91.4084,-60.217 -146.2588,-60.217 z m 0,12.38271 c 51.591,0 101.0604,20.3689 137.5301,56.616696 36.4698,36.24779 56.9475,85.39216 56.9475,136.63921 0,51.24704 -20.4777,100.39194 -56.9475,136.63972 -36.4697,36.24782 -85.9391,56.6167 -137.5301,56.6167 -51.591,0 -101.0598,-20.36888 -137.5296,-56.6167 -36.4697,-36.24778 -56.9479,-85.39268 -56.9479,-136.63972 0,-51.24705 20.4782,-100.39142 56.9479,-136.63921 36.4698,-36.247796 85.9386,-56.616696 137.5296,-56.616696 z"
           id="path2276-1" />
      </g>
      <g
         id="g2567"
         transform="matrix(0.49187818,-0.283986,0.48880806,0.28221347,78.983613,562.47193)"
         style="fill:#d4aa00;fill-opacity:1;stroke-width:1.46898">
        <path
           style="fill:#d4aa00;fill-opacity:1;stroke:none;stroke-width:0.388665"
           d="m 1258.9881,107.64937 c -1.2141,-0.48992 0.1255,-2.06194 2.2514,-2.64197 0.7505,-0.20478 2.1981,-0.76432 3.2167,-1.24342 1.9875,-0.9348 2.4261,-1.89893 1.1697,-2.57134 -1.1545,-0.61787 -5.1887,-0.44233 -6.6518,0.28944 -1.9421,0.97136 -3.5834,1.21531 -3.8312,0.56947 -0.2718,-0.70839 0.2203,-1.2421 3.2428,-3.516906 3.7682,-2.83602 6.628,-3.44649 12.3323,-2.63249 5.8199,0.83048 6.059,1.4764 1.9866,5.367076 -1.5267,1.45863 -3.6301,3.22991 -4.6743,3.93618 -2.8538,1.93037 -7.322,3.13805 -9.0422,2.44396 z"
           id="path2509" />
        <path
           style="fill:#d4aa00;fill-opacity:1;stroke:none;stroke-width:0.388665"
           d="m 1231.4245,157.75496 c -2.5742,-1.80304 -2.4343,-7.76726 0.3382,-14.42733 2.47,-5.93318 7.7819,-13.21962 9.6373,-13.21962 0.8913,0 0.671,0.6986 -1.0572,3.35138 -1.8266,2.80389 -4.7406,8.66015 -5.6171,11.28889 -1.1678,3.5022 -1.0302,7.23195 0.2669,7.23195 0.2252,0 1.1007,-0.75407 1.9456,-1.6757 l 1.5362,-1.67569 -0.2107,1.76389 c -0.6851,5.73611 -4.0261,9.33259 -6.8392,7.36223 z"
           id="path2511" />
        <path
           style="fill:#d4aa00;fill-opacity:1;stroke:none;stroke-width:0.388665"
           d="m 1273.4749,174.73866 c -4.0213,-1.71836 -3.234,-12.16038 1.6776,-22.25053 0.9501,-1.95198 2.127,-3.92434 2.6153,-4.38303 0.8699,-0.81727 0.8877,-0.8192 0.8877,-0.0962 0,0.40575 -0.6146,2.45748 -1.3658,4.55941 -2.5218,7.05643 -3.3397,13.09351 -2.0421,15.07385 1.0453,1.59526 2.2576,1.08987 3.5624,-1.48509 0.3259,-0.64296 0.7816,-1.10697 1.0127,-1.03113 1.3703,0.44963 -0.076,6.07505 -2.1318,8.29199 -1.5324,1.65241 -2.633,1.99721 -4.216,1.32077 z"
           id="path2513" />
        <path
           style="fill:#d4aa00;fill-opacity:1;stroke:none;stroke-width:0.388665"
           d="m 1188.7326,168.68674 c -1.1293,4.31179 -2.5155,12.00147 -2.8429,15.77165 -0.1656,1.9057 -0.4047,3.63272 -0.5315,3.83782 -0.3418,0.55308 -0.8281,0.45309 -1.1888,-0.24446 -0.1756,-0.33954 -0.8329,-2.12548 -1.4607,-3.96875 -2.0163,-6.4673 -1.7319,-6.84135 -4.0985,-9.23943 -1.7067,-1.72941 -4.6969,-0.99578 -6.6235,-3.04347 -0.7218,-0.81179 -1.1455,-3.38457 -0.7904,-4.79941 0.5221,-2.08017 4.0229,-2.09786 6.387,-0.40517 2.7016,1.93434 5.2759,5.57214 6.5679,7.4983 0.3976,0.64336 0.8368,1.16974 0.9758,1.16974 1.5436,-3.43356 1.83,-7.82301 2.1782,-9.59173 0.1835,-0.63983 0.4492,-3.16036 1.1049,-4.59146 0.6814,-1.48716 1.4461,-2.99205 2.8639,-3.98513 0.9599,-0.76745 2.1651,-0.41936 2.919,0.19934 0.9407,0.7802 1.5313,2.52116 1.7499,5.15863 0.3016,3.63958 -1.0153,4.34145 -2.5564,3.56181 -1.2336,-0.6241 -1.4205,-3.44741 -2.5533,-3.26847 -1.157,0.25585 -1.5631,3.88832 -2.1006,5.94019 z"
           id="path2515" />
        <path
           style="fill:#d4aa00;fill-opacity:1;stroke:none;stroke-width:0.388665"
           d="m 1115.0692,193.47667 c -1.1942,-1.0944 -1.3098,-1.37326 -1.4441,-3.48244 -0.1683,-2.6424 0.4864,-5.28064 2.1188,-8.53862 1.9856,-3.96294 5.7001,-8.62312 6.8956,-8.65115 0.7565,-0.0178 0.4876,0.88546 -0.7434,2.49775 -4.0338,5.28279 -5.8449,11.13011 -4.3578,14.06934 0.6592,1.30297 1.4476,1.25302 3.0483,-0.19316 1.5822,-1.42935 1.7265,-1.26062 0.8409,0.98289 -0.791,2.00394 -1.8417,3.40669 -3.0038,4.01028 -1.4028,0.72859 -1.9176,0.62195 -3.3545,-0.69489 z"
           id="path2517" />
        <path
           id="path2519"
           style="fill:#d4aa00;fill-opacity:1;stroke:none;stroke-width:0.388665"
           d="m 1131.7983,177.06369 c -0.3105,0.0379 -0.6297,0.14153 -0.9504,0.31317 -2.0507,1.09754 -4.2561,6.10611 -4.3082,9.78493 -0.032,2.22707 0.3439,3.24665 1.7523,4.75733 l 0.892,0.95653 -1.5467,2.04174 c -4.0636,5.36331 -11.6652,11.86098 -19.1973,16.40985 -2.5981,1.56909 -4.2255,3.20408 -3.9372,3.95531 0.4258,1.10956 2.1139,0.49267 7.4724,-2.73058 6.7479,-4.05908 12.1045,-8.69351 15.8874,-13.74593 1.4868,-1.98575 2.8294,-3.74601 2.9833,-3.91139 0.1538,-0.16539 0.8878,0.1126 1.6309,0.61753 0.7431,0.50494 1.7855,0.91829 2.3172,0.91829 0.8679,0 1.0241,-0.19798 1.5301,-1.93838 0.6976,-2.39981 0.4795,-3.13316 -1.2775,-4.29586 -0.7606,-0.50339 -1.3828,-1.03368 -1.3828,-1.17822 0,-0.14455 0.2641,-0.87754 0.587,-1.62884 0.9076,-2.11128 0.8639,-7.34674 -0.075,-8.95036 -0.5916,-1.01061 -1.4462,-1.48885 -2.3776,-1.37512 z m -1.0904,4.74442 c 0.2157,0.0101 0.4374,0.12803 0.7674,0.35915 0.2182,0.15285 0.3904,0.35219 0.5162,0.59841 0.1259,0.24623 0.2056,0.53923 0.2393,0.88109 0.034,0.34186 0.021,0.73225 -0.037,1.17202 -0.058,0.43977 -0.1622,0.92922 -0.3121,1.46916 -0.1011,0.3638 -0.2208,0.69355 -0.3323,0.93224 -0.1115,0.23869 -0.215,0.38606 -0.2832,0.38448 -0.1839,-0.004 -0.4371,-0.10646 -0.7162,-0.26976 -0.2792,-0.16329 -0.5844,-0.38739 -0.8728,-0.63562 -0.2885,-0.24822 -0.5602,-0.5206 -0.7721,-0.77979 -0.2118,-0.25919 -0.3636,-0.50557 -0.4129,-0.70177 -0.065,-0.25885 -0.073,-0.53832 -0.032,-0.8232 0.041,-0.28489 0.1323,-0.57486 0.2656,-0.85525 0.1334,-0.28039 0.3092,-0.55096 0.5199,-0.79633 0.2107,-0.24538 0.4566,-0.46563 0.7302,-0.64544 0.1532,-0.1007 0.2822,-0.17585 0.4,-0.22428 0.1177,-0.0484 0.2239,-0.0702 0.3317,-0.0651 z" />
        <path
           style="fill:#d4aa00;fill-opacity:1;stroke:none;stroke-width:0.388665"
           d="m 1142.2857,227.30009 c -3.1557,-3.3461 -2.2584,-11.50669 2.289,-20.8157 3.7431,-7.66274 7.7495,-10.73162 4.3052,-3.2978 -2.8751,6.20516 -3.9755,9.68854 -4.1623,13.17558 -0.1842,3.43952 0.2718,4.58612 1.824,4.58612 0.8435,0 1.3004,-0.35062 2.4294,-1.8641 1.8401,-2.46686 2.2224,-2.02086 1.4664,1.71046 -1.0553,5.20817 -2.8794,7.73836 -5.5788,7.73836 -1.1541,0 -1.6211,-0.22379 -2.5729,-1.23292 z"
           id="path2521" />
        <path
           style="fill:#d4aa00;fill-opacity:1;stroke:none;stroke-width:0.388665"
           d="m 1236.7559,230.66374 c -2.9946,-2.49759 -2.527,-9.65727 1.144,-17.51289 2.3485,-5.02571 5.0584,-8.60674 6.513,-8.60674 0.6967,0 0.3846,0.94141 -1.8841,5.68327 -3.6427,7.61352 -4.9376,12.82153 -3.5361,14.22296 1.5322,1.53227 3.4572,0.88691 4.5442,-1.52349 0.9304,-2.06333 1.3864,-1.83543 1.1586,0.57908 -0.2329,2.46844 -1.2211,4.84344 -2.7306,6.5627 -1,1.13891 -1.3179,1.28526 -2.7689,1.27487 -1.0776,-0.008 -1.9135,-0.24058 -2.4401,-0.67976 z"
           id="path2523" />
        <path
           style="fill:#d4aa00;fill-opacity:1;stroke:none;stroke-width:0.388665"
           d="m 1273.45,244.71837 c -4.1358,-1.19396 -4.6308,-10.23616 -1.0405,-19.00758 2.0509,-5.01068 6.5501,-11.64168 7.899,-11.64168 0.8101,0 0.3313,1.48023 -1.4848,4.58989 -4.5437,7.78024 -6.2366,18.34859 -3.1302,19.54065 1.0355,0.39735 1.835,-0.12845 2.9495,-1.93968 1.4172,-2.30332 1.9147,-1.98427 1.6949,1.08717 -0.2054,2.87042 -1.6228,5.76431 -3.4103,6.96275 -1.2937,0.86741 -1.716,0.91702 -3.4776,0.40848 z"
           id="path2525" />
        <path
           style="fill:#d4aa00;fill-opacity:1;stroke:none;stroke-width:0.388665"
           d="m 1381.5382,254.55037 c -2.3523,-2.27242 -2.8638,-5.48006 -1.7943,-11.24991 0.9929,-5.35604 4.2319,-14.31713 6.6929,-18.5165 0.8943,-1.52601 2.6959,-2.82491 3.3541,-2.41815 0.6348,0.39233 0.3443,1.39008 -1.436,4.93248 -2.8393,5.64949 -4.5716,11.98586 -4.5716,16.72214 0,3.21818 0.8944,5.06637 2.5453,5.25942 0.9788,0.11445 1.4201,-0.38507 2.2785,-2.57878 l 0.4142,-1.05833 0.027,0.9391 c 0.038,1.33472 -0.9138,6.11361 -1.4088,7.07326 -0.8713,1.68862 -1.8164,2.39458 -3.2058,2.39458 -1.1019,0 -1.6225,-0.26958 -2.8954,-1.49931 z"
           id="path2527" />
        <path
           style="fill:#d4aa00;fill-opacity:1;stroke:none;stroke-width:0.388665"
           d="m 1162.1965,253.03094 c -2.208,-2.04837 -4.0725,-3.88907 -4.1434,-4.09045 -0.071,-0.20139 0.4988,-1.02577 1.2657,-1.83196 0.767,-0.80618 2.3829,-2.69611 3.591,-4.19982 1.6534,-2.05793 2.4086,-2.73403 3.0541,-2.73403 0.5872,0 2.0293,1.05656 4.5743,3.35139 2.0442,1.84326 3.7909,3.35139 3.8815,3.35139 0.091,0 1.786,-1.50813 3.7673,-3.35139 1.9814,-1.84326 3.8845,-3.35139 4.2292,-3.35139 0.9388,0 8.3976,7.04693 8.3976,7.93394 0,1.15518 -6.8727,7.58828 -8.1068,7.58828 -0.3831,0 -2.0892,-1.26579 -3.7914,-2.81287 -1.9203,-1.7454 -3.3976,-2.81643 -3.8927,-2.82223 -0.5292,-0.006 -2.0015,1.11923 -4.3721,3.34205 -1.9658,1.84326 -3.7689,3.35138 -4.0069,3.35138 -0.2381,0 -2.2394,-1.67593 -4.4474,-3.72429 z"
           id="path2529" />
        <path
           id="path2531"
           style="fill:#d4aa00;fill-opacity:1;stroke:none;stroke-width:0.388665"
           d="m 1318.2933,114.65459 c -0.8641,-0.12365 -1.5148,1.04142 -3.3093,5.92832 l -1.1007,2.99878 0.3715,4.05712 c 0.2045,2.23132 0.4653,7.54927 0.5793,11.81788 0.3515,13.16046 1.1721,76.51459 0.9948,76.80151 -0.2962,0.47922 -6.5486,4.72894 -10.2604,6.97375 -1.9813,1.19829 -4.0851,2.72788 -4.6746,3.39927 -1.1463,1.30553 -1.3885,2.5079 -0.5685,2.82257 0.9311,0.35727 6.3344,-2.44922 12.4122,-6.44715 1.5736,-1.03513 2.9626,-1.88206 3.0867,-1.88206 0.124,0 0.2368,6.15191 0.2506,13.67049 0.06,6.50539 1.4254,13.56743 -0.9457,21.5377 -0.4463,2.23148 0.9759,0.98798 2.6474,-2.31459 1.1779,-2.32747 2.3643,-5.86214 3.5217,-10.49186 1.7064,-6.82581 2.2493,-11.49075 2.3585,-20.26337 l 0.099,-7.91632 2.0563,-1.78439 c 1.9522,-1.69403 3.8182,-3.60989 5.2916,-5.43326 0.6606,-0.81744 0.6788,-0.81945 1.9746,-0.20153 0.7192,0.34295 1.3708,0.5556 1.4485,0.47232 0.078,-0.0833 0.6448,-1.34175 1.2604,-2.79621 l 1.1193,-2.64429 -0.8759,-0.70693 -0.8765,-0.70693 0.9302,-2.11667 c 0.7649,-1.74077 0.9323,-2.65935 0.9431,-5.17385 0.012,-2.78361 -0.066,-3.14209 -0.8687,-4.00233 -0.7968,-0.85365 -1.0751,-0.93111 -2.883,-0.80254 -3.9115,0.27818 -7.3204,3.4578 -7.6233,7.11119 -0.1905,2.29662 0.29,3.88102 1.9022,6.27662 l 1.2118,1.80144 -1.6836,1.80454 c -1.9085,2.04535 -3.5972,3.53703 -3.7869,3.34502 -0.345,-0.3494 -1.5875,-50.31928 -1.5973,-64.24672 0,-3.24997 0.1149,-5.89586 0.2605,-5.87975 0.1455,0.0161 1.0586,0.99309 2.0288,2.17093 2.3671,2.87395 3.4947,3.70402 4.2168,3.10472 0.3,-0.24898 0.5457,-0.80037 0.5457,-1.22525 0,-1.38927 -5.9247,-19.52828 -8.3613,-25.59895 -1.0523,-2.62192 -1.5083,-3.37521 -2.0954,-3.45922 z m 12.8008,80.46227 c 0.2533,-0.0577 0.5265,-0.0557 0.7767,0.0155 0.1251,0.0356 0.2448,0.0882 0.353,0.15968 0.1081,0.0715 0.2049,0.16196 0.2852,0.27182 0.1411,0.19302 0.2485,0.36601 0.323,0.53589 0.074,0.16987 0.1159,0.33651 0.1256,0.51676 0.01,0.18025 -0.012,0.37376 -0.066,0.5979 -0.053,0.22413 -0.1381,0.47878 -0.2527,0.78031 -0.095,0.24885 -0.2139,0.47522 -0.3297,0.63924 -0.1159,0.16401 -0.2284,0.26561 -0.3096,0.26561 -0.1242,0 -0.3014,-0.12778 -0.4971,-0.33124 -0.1957,-0.20346 -0.4099,-0.48265 -0.6088,-0.78548 -0.1988,-0.30283 -0.3821,-0.62897 -0.5157,-0.92708 -0.1336,-0.2981 -0.2175,-0.56778 -0.2175,-0.75706 0,-0.12816 0.027,-0.24644 0.075,-0.35346 0.048,-0.10703 0.1165,-0.20286 0.2015,-0.28629 0.1699,-0.16686 0.4035,-0.2844 0.6568,-0.3421 z" />
        <path
           style="fill:#d4aa00;fill-opacity:1;stroke:none;stroke-width:0.388665"
           d="m 1100.1504,272.54205 c 2e-4,-0.24255 0.9532,-1.60669 2.1177,-3.03144 2.8444,-3.47999 4.5602,-6.62443 4.8223,-8.83738 0.2855,-2.41047 -0.178,-2.996 -1.8264,-2.30723 -4.0291,1.68346 -2.7734,-3.42364 1.365,-5.55163 1.6256,-0.83589 2.8016,-0.64061 3.6146,0.60026 0.8674,1.32384 0.5072,5.96912 -0.7118,9.17879 -1.0688,2.81419 -4.1974,7.19871 -6.5048,9.11603 -1.5329,1.27376 -2.8774,1.66291 -2.8766,0.8326 z"
           id="path2533" />
        <path
           style="fill:#d4aa00;fill-opacity:1;stroke:none;stroke-width:0.388665"
           d="m 1328.7923,275.04286 c -3.6387,-2.79212 -6.8756,-4.88206 -7.5613,-4.88206 -0.4072,0 -1.8653,1.23179 -3.5532,3.00159 -2.2077,2.31497 -3.079,3.0009 -3.8086,2.9986 -0.6662,-0.003 -1.9517,-0.84849 -4.3455,-2.86118 -3.5695,-3.00119 -4.2808,-3.96335 -3.9385,-5.32717 0.299,-1.19147 7.0098,-7.68963 7.9412,-7.68963 0.7749,0 4.5608,2.98526 6.7909,5.35473 0.6978,0.74142 1.4371,1.34806 1.6428,1.34806 0.2058,0 2.0379,-1.77851 4.0714,-3.95222 3.2315,-3.45432 3.7889,-3.90985 4.4244,-3.61597 1.1787,0.54502 8.1273,6.8722 8.3631,7.61515 0.1253,0.39478 -0.063,1.1226 -0.4476,1.73003 -1.0009,1.58089 -6.7886,7.74883 -7.2649,7.74224 -0.229,-0.003 -1.2704,-0.66114 -2.3142,-1.46217 z"
           id="path2535" />
        <path
           style="fill:#d4aa00;fill-opacity:1;stroke:none;stroke-width:0.388665"
           d="m 1136.6711,280.95392 c -1.5002,-1.5907 -2.102,-3.83815 -1.8458,-6.8937 0.3578,-4.26749 3.1145,-11.27566 6.2577,-15.90809 2.9141,-4.29498 3.3096,-3.37698 0.7488,1.73828 -2.6345,5.26254 -3.3913,7.79807 -3.399,11.38756 -0.01,2.75484 0.078,3.14767 0.8488,3.96875 0.4704,0.5012 1.1286,0.91128 1.4627,0.91128 0.6639,0 2.6255,-2.05915 3.2341,-3.39479 1.1528,-2.53024 1.344,1.314 0.2164,4.35171 -1.0561,2.84512 -3.2612,5.04031 -5.063,5.04031 -1.0534,0 -1.5618,-0.24823 -2.4607,-1.20131 z"
           id="path2537" />
        <path
           style="fill:#d4aa00;fill-opacity:1;stroke:none;stroke-width:0.388665"
           d="m 1289.2503,287.52879 c -0.734,-0.59577 -0.7989,-0.79285 -0.4139,-1.2568 0.2512,-0.3026 1.3573,-0.72483 2.458,-0.93827 2.7551,-0.53419 4.8002,-1.31466 5.5152,-2.10476 0.5703,-0.63008 0.5617,-0.68619 -0.1634,-1.07426 -1.5318,-0.81978 -4.3732,-0.83812 -6.9843,-0.045 -1.3601,0.41309 -2.6201,0.7511 -2.8001,0.7511 -0.3988,0 -0.3411,-1.29062 0.075,-1.66852 1.1947,-2.58719 4.7976,-4.17712 6.4727,-4.66736 1.7845,-0.47717 5.5139,-0.0498 9.3152,1.06755 3.6135,1.06209 3.9688,2.24792 1.4729,4.91617 -2.9856,3.19182 -6.9982,5.07198 -11.7659,5.51299 -1.9829,0.18341 -2.4339,0.11353 -3.181,-0.49284 z"
           id="path2539"
           sodipodi:nodetypes="sssssssccsssss" />
        <path
           id="path2541"
           style="fill:#d4aa00;fill-opacity:1;stroke:none;stroke-width:0.388665"
           d="m 1224.6029,247.21942 c -2.1287,0 -4.7323,3.45084 -5.8265,7.72201 -0.751,2.93148 -0.3443,4.09486 2.219,6.34328 l 1.9756,1.73271 -1.1447,1.44539 c -1.7616,2.22422 -9.7089,9.22049 -27.1688,23.91843 -6.1183,5.15038 -7.3158,6.41022 -6.9645,7.32565 0.1935,0.50416 0.3468,0.51035 1.4273,0.0589 2.349,-0.98149 5.0027,-2.87596 16.7344,-11.9486 11.0017,-8.50802 13.7012,-11.15556 17.4573,-17.11885 1.3452,-2.13558 1.4235,-2.19617 2.1431,-1.66708 1.4205,1.04457 2.8649,1.93987 3.1285,1.94252 0.1455,7.9e-4 0.5819,-0.31629 0.9699,-0.70435 0.5145,-0.51443 0.7054,-1.17566 0.7054,-2.44171 0,-1.62691 -0.1021,-1.8242 -1.6195,-3.12126 l -1.6196,-1.38441 0.4553,-2.70837 c 0.8222,-4.8931 -0.5541,-9.39425 -2.8722,-9.39425 z m -0.6702,5.76037 c 0.2525,0.0704 0.4664,0.21976 0.6449,0.45165 0.1785,0.23189 0.3218,0.54632 0.432,0.94723 0.1103,0.40091 0.1878,0.88855 0.2357,1.46606 0.049,0.5937 0.055,1.08308 0.021,1.4242 -0.017,0.17056 -0.043,0.304 -0.079,0.39481 -0.036,0.0908 -0.082,0.13901 -0.1354,0.13901 -0.098,0 -0.3302,-0.15901 -0.6258,-0.41496 -0.2957,-0.25595 -0.6543,-0.60851 -1.0051,-0.99684 -0.3894,-0.43099 -0.6903,-0.83738 -0.9018,-1.20975 -0.2115,-0.37236 -0.3337,-0.71117 -0.3654,-1.00614 -0.016,-0.14748 -0.01,-0.28363 0.02,-0.40824 0.03,-0.12461 0.082,-0.23753 0.1571,-0.33693 0.075,-0.0994 0.1731,-0.18552 0.2941,-0.25735 0.1209,-0.0718 0.265,-0.12912 0.432,-0.17105 0.3323,-0.0834 0.6229,-0.0921 0.8754,-0.0217 z" />
        <path
           style="fill:#d4aa00;fill-opacity:1;stroke:none;stroke-width:0.388665"
           d="m 1268.6601,318.9617 c -0.8846,-0.8846 0.7407,-2.89755 5.1612,-6.39204 1.7794,-1.40673 1.9626,-1.65989 1.4111,-1.95024 -1.3972,-0.73549 -3.2818,-2.89317 -3.4883,-3.99368 -0.6508,-3.46903 4.5365,-10.44617 9.8207,-13.20922 5.9022,-3.08623 10.7627,1.77697 6.5599,6.56363 -1.2712,1.4478 -2.0011,1.53326 -3.1005,0.36301 -1.9924,-2.12083 -4.3538,-2.36676 -6.3771,-0.66419 -1.963,1.65169 -1.2271,3.79683 1.983,5.78078 1.8429,1.13898 4.3783,1.39203 9.6916,0.96732 4.3696,-0.34928 4.8699,-0.32838 5.7368,0.23966 1.2335,0.80825 1.5382,2.05105 0.7848,3.20098 -0.7335,1.11943 -2.5103,2.22377 -3.9003,2.42411 -10.2757,1.48103 -13.2331,2.26891 -18.6972,4.98113 -3.661,1.81718 -5.0402,2.23417 -5.5857,1.68875 z"
           id="path2543" />
        <path
           style="fill:#d4aa00;fill-opacity:1;stroke:none;stroke-width:0.388665"
           d="m 1212.9382,319.73241 c -2.1294,-2.19252 -3.4216,-5.54368 -3.4252,-8.88296 0,-5.07217 2.8995,-13.77191 5.5175,-16.5234 l 1.007,-1.05833 0.1125,0.97989 c 0.062,0.5389 -0.3718,2.53899 -0.9638,4.44462 -0.5921,1.90564 -1.2453,4.63969 -1.4516,6.07569 -0.7058,4.91146 0.5454,9.84287 2.4972,9.84287 0.3378,0 1.2602,-0.75406 2.0497,-1.67571 1.355,-1.58176 1.4362,-1.62441 1.4478,-0.76078 0.029,2.15601 -2.5112,7.70744 -3.8561,8.42721 -1.1058,0.5918 -1.6819,0.42119 -2.935,-0.8691 z"
           id="path2545" />
        <path
           style="fill:#d4aa00;fill-opacity:1;stroke:none;stroke-width:0.388665"
           d="m 1188.1331,318.03048 c -4.4072,-4.27186 -4.4752,-4.36147 -4.2443,-5.59242 0.2341,-1.2477 5.6736,-9.46894 6.2651,-9.46894 0.521,0 8.3971,7.46263 9.1334,8.654 0.9058,1.46568 0.8763,2.13309 -0.1757,3.97316 -1.3832,2.41927 -5.1499,6.77561 -5.8586,6.77561 -0.3526,0 -2.6565,-1.95363 -5.1199,-4.34141 z"
           id="path2547" />
        <path
           style="fill:#d4aa00;fill-opacity:1;stroke:none;stroke-width:0.388665"
           d="m 1363.2986,323.57818 c -0.3704,-0.44622 -0.3821,-0.99221 -0.059,-2.73402 2.3929,-12.89732 2.2916,-9.7119 2.4523,-77.09043 l 0.146,-61.15568 -0.7649,-2.51827 c -0.5051,-1.66287 -0.6986,-2.99842 -0.5696,-3.93183 0.2568,-1.85931 3.3328,-10.41218 4.0291,-11.20314 0.7139,-0.81105 1.4734,-0.79716 1.2589,0.0231 -0.092,0.35222 0.8911,3.48753 2.1848,6.96736 1.2938,3.47982 3.1216,8.47008 4.0616,11.08945 1.77,4.9316 3.4965,9.60285 4.2509,11.50145 0.4868,1.22492 0.2662,2.16414 -0.585,2.49076 -0.3946,0.15144 -1.3946,-0.60406 -3.279,-2.47744 -1.4912,-1.48242 -2.9101,-2.69532 -3.1531,-2.69532 -0.2431,0 -0.5757,0.35719 -0.7392,0.79375 -0.1675,0.44723 0.056,13.73059 0.5109,30.4271 1.8575,68.10495 1.8594,65.0336 -0.047,76.63019 -1.769,10.76464 -5.9146,22.83072 -8.2786,24.0959 -0.8382,0.44858 -0.8754,0.443 -1.4197,-0.21288 z"
           id="path2549" />
        <path
           style="fill:#d4aa00;fill-opacity:1;stroke:none;stroke-width:0.388665"
           d="m 1164.0561,331.59619 c -3.2062,-3.44948 -3.3618,-13.50057 -0.3449,-22.27707 0.5669,-1.64925 1.0628,-3.31613 1.1021,-3.70416 0.1273,-1.25849 -1.742,-0.69797 -6.2514,1.87446 -4.9603,2.82972 -5.2788,2.96342 -5.8051,2.43713 -1.0663,-1.06635 -0.088,-2.83331 2.5286,-4.56488 1.8605,-1.23142 23.4218,-13.77646 25.5943,-14.89155 1.6101,-0.82644 2.173,-0.52398 2.173,1.16766 0,1.79692 -0.6812,2.37101 -6.566,5.53331 -6.1769,3.31923 -7.825,4.94769 -9.0816,8.97303 -1.4772,4.73186 -2.0052,7.61844 -2.2312,12.19782 -0.2385,4.8336 0.3594,7.67692 1.7039,8.10369 0.8135,0.25818 2.1747,-0.8341 2.9883,-2.39805 0.2776,-0.53356 0.7388,-0.97012 1.0249,-0.97012 0.6244,0 0.6314,0.14589 0.1234,2.54026 -0.803,3.78439 -3.155,6.98474 -5.1333,6.98474 -0.5246,0 -1.2736,-0.41299 -1.825,-1.00627 z"
           id="path2551" />
        <path
           style="fill:#d4aa00;fill-opacity:1;stroke:none;stroke-width:0.388665"
           d="m 1124.7413,336.37052 c -0.2798,-0.72924 0.8925,-3.68062 2.9059,-7.31605 2.2621,-4.08445 2.5394,-5.30177 1.3906,-6.10642 -0.4524,-0.31689 -1.4129,-0.57616 -2.1344,-0.57616 -1.6011,0 -1.871,-0.37211 -1.3704,-1.88899 0.4684,-1.41912 1.9738,-2.9165 3.2488,-3.23149 1.3887,-0.34308 4.0782,0.94599 4.5709,2.19086 0.8627,2.17942 -1.4028,8.08318 -4.864,12.6756 -0.8589,1.13964 -1.9007,2.6674 -2.3152,3.395 -0.8002,1.40489 -1.1433,1.61039 -1.4322,0.85765 z"
           id="path2553" />
        <path
           style="fill:#d4aa00;fill-opacity:1;stroke:none;stroke-width:0.388665"
           d="m 1255.725,389.57344 c 0,-0.0984 1.5539,-2.44001 3.4531,-5.20345 1.8993,-2.76347 3.6505,-5.47929 3.8915,-6.03515 0.9829,-2.26674 -0.582,-3.22114 -3.3059,-2.01623 -1.2656,0.5598 -1.7842,0.6419 -2.148,0.33994 -0.708,-0.58759 -0.5797,-2.02214 0.3616,-4.04366 1.3717,-2.9459 3.4312,-4.07299 6.1196,-3.34907 2.1642,0.58277 3.097,1.82444 3.075,4.09342 -0.034,3.54833 -4.7825,11.48586 -9.0619,15.14893 -1.2824,1.09763 -2.385,1.59015 -2.385,1.06527 z"
           id="path2555" />
        <path
           style="fill:#d4aa00;fill-opacity:1;stroke:none;stroke-width:0.388665"
           d="m 1301.7718,176.16557 c -4.0213,-1.71836 -3.234,-12.16038 1.6776,-22.25053 0.9502,-1.95199 2.1271,-3.92435 2.6153,-4.38303 0.87,-0.81728 0.8878,-0.81921 0.8878,-0.0963 0,0.40576 -0.6146,2.4575 -1.3658,4.55943 -2.5218,7.05641 -3.3397,13.09349 -2.0421,15.07384 1.0452,1.59526 2.2576,1.08988 3.5624,-1.48508 0.3258,-0.64296 0.7815,-1.10699 1.0127,-1.03113 1.3703,0.44963 -0.076,6.07504 -2.1319,8.29199 -1.5323,1.6524 -2.633,1.99721 -4.216,1.32077 z"
           id="path2557" />
        <path
           style="fill:#d4aa00;fill-opacity:1;stroke:none;stroke-width:0.388665"
           d="m 1296.6683,367.17866 c -2.4744,3.79002 -6.1494,10.7529 -7.5373,14.28096 -0.7016,1.78329 -1.4422,3.37048 -1.6457,3.52708 -0.5489,0.42228 -1.0937,0.16815 -1.332,-0.62124 -0.116,-0.38428 -0.4132,-2.31905 -0.6606,-4.2995 -0.6487,-6.88825 -0.215,-7.15653 -2.3581,-10.23583 -1.5455,-2.22071 -7.0361,-0.67866 -8.7553,-3.27748 -0.6323,-1.01666 -6e-4,-7.27511 0.7932,-8.52376 1.167,-1.83584 6.622,1.11887 8.9499,3.5174 2.6601,2.74092 4.7175,7.08263 5.7233,9.35847 0.2961,0.74914 0.6721,1.39896 0.8355,1.44407 2.7275,-2.80911 4.2321,-6.94743 5.1118,-8.53943 0.3859,-0.55724 1.3687,-2.90073 2.5201,-4.06757 1.1964,-1.21253 2.4956,-2.41509 4.426,-2.91248 1.3321,-0.42844 2.6559,0.29805 3.3772,1.13898 0.8979,1.05722 3.2242,3.82592 2.7793,6.43921 -0.614,3.60622 -2.3483,3.85562 -3.9519,2.60419 -1.2837,-1.00176 -2.7532,-4.03646 -4.795,-3.85186 -1.7649,0.15957 -2.3029,2.2152 -3.4804,4.01879 z"
           id="path2559"
           sodipodi:nodetypes="sssscscsscccsccssas" />
        <path
           id="path2561"
           style="fill:#d4aa00;fill-opacity:1;stroke:none;stroke-width:0.388665"
           d="m 1234.53,95.583404 c -22.5382,8.176066 -45.0623,17.020666 -66.212,28.405496 -6.829,5.64191 -3.5994,15.42188 0.1212,19.47895 -11.34,7.13867 -32.703,10.31199 -30.8417,27.65951 2.2618,14.27122 20.2803,18.74452 28.5853,29.42377 5.9809,4.63955 13.6573,9.51072 3.6123,13.4916 -14.7483,10.913 -25.432,26.75763 -41.0727,36.37875 -17.8785,5.59335 -11.4535,-20.9709 -6.1229,-29.48249 2.2238,-7.11739 10.1133,-16.12582 10.2326,-21.32587 -8.5416,8.23382 -14.0107,20.11589 -18.1021,31.36718 -5.1604,10.65115 -0.626,23.41779 4.5055,31.00321 -6.6949,13.74969 -14.3437,31.71969 -4.9114,45.90475 9.1254,13.06562 24.2166,-5.80986 28.9018,-8.11052 -4.9817,15.14698 -9.6138,34.29847 1.1313,48.02646 15.9873,17.66797 43.2838,14.33541 62.9418,5.3181 14.9792,-11.40622 1.5251,13.07174 6.7547,20.93145 2.6557,17.25544 22.8966,13.87377 30.3284,2.00231 12.504,-12.16255 23.665,-27.00406 41.0525,-32.43217 9.633,-2.00417 24.3504,-15.0118 25.9949,1.73707 5.631,12.32585 21.945,9.20728 29.4021,0.55104 12.6623,-12.32807 11.4561,-31.72632 12.1594,-48.04482 0.2326,-45.66142 -2.3441,-91.28362 -2.9771,-136.92911 3.3958,5.58406 11.7409,10.98945 6.8799,-0.004 -4.0393,-6.07263 -4.803,-21.35003 -11.4719,-22.1389 -6.8034,11.31359 -0.5176,24.65118 -2.2302,37.0864 0.6311,51.23963 1.3723,102.47894 1.6096,153.72239 -3.77,12.10831 -24.9303,16.09373 -29.5706,3.01038 14.4614,-8.33168 22.3206,-38.37735 8.4958,-44.23266 -9.8148,-4.15687 -18.9941,15.22448 -18.3573,26.18172 -0.6698,5.0273 2.4551,12.67381 -5.1359,12.64687 -17.278,4.8032 -34.0331,12.68691 -46.1012,26.32602 -9.6458,8.35834 -16.8952,23.11921 -30.6255,24.44258 -11.3803,-6.75841 -6.5298,-26.46294 0.4685,-34.81139 11.203,-7.60815 19.6702,-21.44154 14.9183,-35.19654 -0.4521,-7.6652 -11.639,-25.91809 2.6085,-18.64262 -3.3037,-4.61257 -11.3284,-20.25312 -15.1618,-16.88545 -4.3788,13.3322 5.3722,26.09442 7.3894,39.24025 7.2575,14.70528 -11.628,21.21083 -21.5503,26.90569 -18.0442,8.69376 -42.106,16.24957 -59.6532,2.68827 -13.1396,-11.97313 -11.096,-33.00208 -3.9139,-47.61402 10.1313,-10.1028 23.3034,-16.51777 37.3629,-18.88511 11.1162,-2.34285 22.9389,-9.48684 22.9486,-22.20127 2.3464,-9.5363 -5.3858,-23.57098 -6.4664,-28.93961 15.979,13.83343 31.8615,27.79351 48.3286,41.04681 -0.4305,27.5522 1.4874,55.31115 -2.706,82.63867 2.8703,5.13741 7.473,-13.12603 8.3118,-18.43056 3.3083,-19.15387 1.0498,-38.70325 2.0129,-58.02554 11.2562,8.38632 31.1197,6.40724 35.018,-9.03642 7.152,-20.08017 2.5773,-41.81478 2.8505,-62.61645 -0.7049,-23.96998 -1.7606,-47.93412 -2.2097,-71.90892 7.2482,10.51949 9.1421,0.57943 4.3955,-6.06159 -3.1672,-6.07668 -8.0239,-28.181456 -12.1129,-10.84125 2.2002,25.2511 1.3261,50.91749 2.4727,76.33083 0.445,22.37314 1.6315,44.74946 1.3528,67.12662 -4.1278,13.91064 -22.3075,12.22547 -30.4167,2.91725 -3.7884,-2.93145 -0.9334,-9.21134 -1.8345,-13.5981 0.059,-18.55036 -0.2871,-37.13456 -0.1229,-55.65573 3.8919,-1.84304 11.3763,9.77649 7.2162,-2.03078 -3.0833,-6.80715 -5.1722,-23.80653 -8.8719,-25.57588 -2.7225,5.24475 -7.1884,10.03448 -5.7776,16.35857 0.1417,24.49573 0.2837,48.99147 0.426,73.48719 -17.3378,-13.74645 -34.9452,-27.33791 -51.9586,-41.38146 10.1168,-4.48401 23.7585,-0.48897 31.6673,2.76831 9.5302,-16.14649 -13.078,-16.10134 -16.2604,-28.69997 -1.0177,-7.9574 -7.4495,-25.39293 5.1096,-20.45391 -2.9175,-6.05345 -12.2202,-30.60418 -13.9831,-11.42537 2.1974,13.3774 0.8896,27.61805 3.887,41.04371 1.7993,6.17256 -15.6004,6.31657 -20.4021,9.36111 -14.8995,-11.9069 -31.2433,-21.91979 -46.4243,-33.37651 6.8856,-8.98696 21.1139,-12.04508 31.3679,-17.7002 25.5499,-10.63435 51.6755,-21.61092 79.3543,-24.85431 11.5237,-3.48029 22.4621,10.24442 7.8226,15.5654 -12.8853,11.30533 -26.7295,23.25103 -32.5954,39.87784 8.2665,-10.8958 18.0661,-21.02712 29.1899,-29.29291 9.8861,-7.73759 22.1082,-20.46794 16.0654,-34.03436 -10.9,-9.78157 -26.7932,-0.75113 -39.0928,1.56587 -21.7635,6.3257 -43.046,14.28272 -63.7006,23.60455 -2.0541,-7.75165 -7.5391,-14.87323 4.4664,-16.88498 18.8959,-9.66092 39.3111,-15.93038 58.5686,-24.64752 1.4342,-0.989306 4.3156,-5.511706 0.6583,-5.213476 z m -51.7255,120.467576 c 9.8823,10.51786 22.2341,21.94002 22.8146,37.21996 -4.8065,10.82032 -18.7806,11.51683 -28.9703,13.7003 -20.789,3.70625 -31.7565,23.41795 -48.3314,34.14278 -8.7423,7.54372 -18.4896,-3.31097 -15.0877,-12.57206 2.336,-8.57713 4.1999,-21.55693 10.7621,-26.79008 13.6565,-2.14037 22.3745,-14.89844 32.5229,-23.18364 8.4119,-7.90855 16.9154,-15.7471 26.2898,-22.51726 z m 137.3819,81.86362 c 8.3993,-0.81524 10.3384,11.722 -1.6844,21.72936 -11.1334,9.72463 -8.6394,-11.37954 -6.3002,-16.92696 1.9993,-4.7411 6.5723,-4.92141 7.9846,-4.8024 z"
           sodipodi:nodetypes="sccccccccccccccccccccccccccacccccccccccccccccccccccccccccccccccccccccccccccccccssccccccccccsc" />
        <path
           style="color:#000000;font-style:normal;font-variant:normal;font-weight:normal;font-stretch:normal;font-size:medium;line-height:normal;font-family:sans-serif;font-variant-ligatures:normal;font-variant-position:normal;font-variant-caps:normal;font-variant-numeric:normal;font-variant-alternates:normal;font-variant-east-asian:normal;font-feature-settings:normal;font-variation-settings:normal;text-indent:0;text-align:start;text-decoration:none;text-decoration-line:none;text-decoration-style:solid;text-decoration-color:#000000;letter-spacing:normal;word-spacing:normal;text-transform:none;writing-mode:lr-tb;direction:ltr;text-orientation:mixed;dominant-baseline:auto;baseline-shift:baseline;text-anchor:start;white-space:normal;shape-padding:0;shape-margin:0;inline-size:0;clip-rule:nonzero;display:inline;overflow:visible;visibility:visible;opacity:1;isolation:auto;mix-blend-mode:normal;color-interpolation:sRGB;color-interpolation-filters:linearRGB;solid-color:#000000;solid-opacity:1;vector-effect:none;fill:#d4aa00;fill-opacity:1;fill-rule:nonzero;stroke:none;stroke-width:8.00654;stroke-linecap:round;stroke-linejoin:round;stroke-miterlimit:4;stroke-dasharray:none;stroke-dashoffset:0;stroke-opacity:1;paint-order:markers fill stroke;color-rendering:auto;image-rendering:auto;shape-rendering:auto;text-rendering:auto;enable-background:accumulate;stop-color:#000000;stop-opacity:1"
           d="m 1244.9009,58.820794 c -48.9714,0 -95.9407,19.33558 -130.5734,53.757436 -34.6326,34.42185 -54.0939,81.11592 -54.0939,129.80242 10e-5,48.68648 19.4613,95.38057 54.0939,129.80242 34.6327,34.42184 81.602,53.75742 130.5734,53.75742 48.9714,0 95.9413,-19.33558 130.574,-53.75742 34.6326,-34.42185 54.0938,-81.11594 54.0938,-129.80242 0,-48.6865 -19.4612,-95.38057 -54.0938,-129.80242 -34.6327,-34.421856 -81.6026,-53.757436 -130.574,-53.757436 z m 0,5.45031 c 47.5368,0 93.1229,18.76872 126.7318,52.173036 33.6089,33.40432 52.4852,78.70229 52.4852,125.93651 0,47.2342 -18.8763,92.53218 -52.4852,125.93651 -33.6089,33.40431 -79.195,52.17302 -126.7318,52.17302 -47.5367,0 -93.1224,-18.76871 -126.7313,-52.17302 -33.6089,-33.40433 -52.4856,-78.70231 -52.4856,-125.93651 -10e-5,-47.23421 18.8767,-92.53219 52.4856,-125.93651 33.6089,-33.404316 79.1946,-52.173036 126.7313,-52.173036 z"
           id="path2563" />
        <path
           style="color:#000000;font-style:normal;font-variant:normal;font-weight:normal;font-stretch:normal;font-size:medium;line-height:normal;font-family:sans-serif;font-variant-ligatures:normal;font-variant-position:normal;font-variant-caps:normal;font-variant-numeric:normal;font-variant-alternates:normal;font-variant-east-asian:normal;font-feature-settings:normal;font-variation-settings:normal;text-indent:0;text-align:start;text-decoration:none;text-decoration-line:none;text-decoration-style:solid;text-decoration-color:#000000;letter-spacing:normal;word-spacing:normal;text-transform:none;writing-mode:lr-tb;direction:ltr;text-orientation:mixed;dominant-baseline:auto;baseline-shift:baseline;text-anchor:start;white-space:normal;shape-padding:0;shape-margin:0;inline-size:0;clip-rule:nonzero;display:inline;overflow:visible;visibility:visible;opacity:1;isolation:auto;mix-blend-mode:normal;color-interpolation:sRGB;color-interpolation-filters:linearRGB;solid-color:#000000;solid-opacity:1;vector-effect:none;fill:#d4aa00;fill-opacity:1;fill-rule:nonzero;stroke:none;stroke-width:18.1897;stroke-linecap:round;stroke-linejoin:round;stroke-miterlimit:4;stroke-dasharray:none;stroke-dashoffset:0;stroke-opacity:1;paint-order:markers fill stroke;color-rendering:auto;image-rendering:auto;shape-rendering:auto;text-rendering:auto;enable-background:accumulate;stop-color:#000000;stop-opacity:1"
           d="m 1244.9009,36.742034 c -54.8503,0 -107.4631,21.65753 -146.2587,60.217 -38.7957,38.559466 -60.601,90.875196 -60.601,145.421616 0,54.54642 21.8053,106.86267 60.601,145.42215 38.7956,38.55946 91.4084,60.21645 146.2587,60.21645 54.8504,0 107.4632,-21.65699 146.2588,-60.21645 38.7231,-38.48743 60.5124,-90.68113 60.5937,-145.11726 a 6.19125,6.19125 0 0 0 0.01,-0.30489 6.19125,6.19125 0 0 0 -0.01,-0.31006 6.19125,6.19125 0 0 0 0,-0.0124 c -0.087,-54.42978 -21.8748,-106.61589 -60.5937,-145.099156 -38.7956,-38.55947 -91.4084,-60.217 -146.2588,-60.217 z m 0,12.38271 c 51.591,0 101.0604,20.3689 137.5301,56.616696 36.4698,36.24779 56.9475,85.39216 56.9475,136.63921 0,51.24704 -20.4777,100.39194 -56.9475,136.63972 -36.4697,36.24782 -85.9391,56.6167 -137.5301,56.6167 -51.591,0 -101.0598,-20.36888 -137.5296,-56.6167 -36.4697,-36.24778 -56.9479,-85.39268 -56.9479,-136.63972 0,-51.24705 20.4782,-100.39142 56.9479,-136.63921 36.4698,-36.247796 85.9386,-56.616696 137.5296,-56.616696 z"
           id="path2565" />
      </g>
    </g>
  </g>
</svg>
