<?xml version="1.0" encoding="UTF-8" standalone="no"?>
<!DOCTYPE svg PUBLIC "-//W3C//DTD SVG 1.1//EN" "http://www.w3.org/Graphics/SVG/1.1/DTD/svg11.dtd">
<!-- Created with Vectornator (http://vectornator.io/) -->
<svg height="100%" stroke-miterlimit="10" style="fill-rule:nonzero;clip-rule:evenodd;stroke-linecap:round;stroke-linejoin:round;" version="1.1" viewBox="0 0 16320 2000" width="100%" xml:space="preserve" xmlns="http://www.w3.org/2000/svg" xmlns:xlink="http://www.w3.org/1999/xlink">
<defs/>
<clipPath id="ArtboardFrame">
<rect height="2000" width="16320" x="0" y="0"/>
</clipPath>
<g clip-path="url(#ArtboardFrame)" id="Untitled">
<path d="M16315-16L29-16L29 1991L16315 1991L16315-16ZM15906 1698L15906 1749L15732 1749C15713.3 1700.33 15677.2 1657.67 15623.5 1621C15569.8 1584.33 15525 1567.33 15489 1570C15556.3 1522.67 15601 1499 15623 1499C15631 1499 15667 1518.67 15731 1558C15795 1597.33 15834.7 1620.67 15850 1628C15865.3 1635.33 15878.5 1646.5 15889.5 1661.5C15900.5 1676.5 15906 1688.67 15906 1698ZM15186 1220L15362 1267C15430.7 1267 15496 1244.33 15558 1199C15580.7 1182.33 15620 1146.17 15676 1090.5C15732 1034.83 15773.7 1007 15801 1007L15860 1007L15812 1086C15794.7 1117.33 15786 1153.83 15786 1195.5C15786 1237.17 15797 1273.33 15819 1304C15841 1334.67 15873.3 1350 15916 1350C15938 1350 15962.2 1341.17 15988.5 1323.5C16014.8 1305.83 16028 1282.67 16028 1254C16028 1225.33 16012.7 1189.33 15982 1146L16041 1146C16065.7 1146 16083.7 1160.5 16095 1189.5C16106.3 1218.5 16112 1247.33 16112 1276C16112 1345.33 16088.7 1399.67 16042 1439C16032 1447 16009.5 1455.83 15974.5 1465.5C15939.5 1475.17 15920 1480.67 15916 1482C15922 1490.67 15932.2 1496.5 15946.5 1499.5C15960.8 1502.5 15986.3 1509.67 16023 1521C16036.3 1536.33 16049.8 1560.83 16063.5 1594.5C16077.2 1628.17 16084 1655 16084 1675C16084 1695 16070.5 1724.83 16043.5 1764.5C16016.5 1804.17 15987 1824 15955 1824C15954.3 1816 15954.3 1793.17 15955 1755.5C15956.4 1674.69 15920.4 1616.52 15847 1581C15785.7 1550.33 15750.8 1531.83 15742.5 1525.5C15734.2 1519.17 15715.5 1500.67 15686.5 1470C15657.5 1439.33 15639.7 1424 15633 1424C15634.3 1424 15607 1439.67 15551 1471C15495 1502.33 15461.7 1518 15451 1518C15440.3 1518 15413.2 1502.33 15369.5 1471C15325.8 1439.67 15300.3 1424 15293 1424C15259 1424 15242 1444.33 15242 1485C15242 1492.33 15243.3 1499.67 15246 1507L15212 1507C15166 1485 15128 1463.33 15098 1442C15095.3 1409.33 15099 1379 15109 1351C15198.3 1387.67 15267.3 1406 15316 1406C15460 1406 15573.3 1358 15656 1262C15650 1256 15645.3 1254.33 15642 1257C15534 1325 15431.3 1359 15334 1359C15306 1359 15270.5 1351.83 15227.5 1337.5C15184.5 1323.17 15153.3 1308 15134 1292L15152 1244.5C15152 1244.5 15163.3 1236.33 15186 1220ZM16063 1097L16010 1089C15990 1089 15969.3 1095.33 15948 1108C15926.7 1120.67 15916 1133.5 15916 1146.5C15916 1159.5 15927 1177.67 15949 1201C15971 1224.33 15982 1240.83 15982 1250.5C15982 1260.17 15976.3 1271.33 15965 1284C15953.7 1296.67 15935.7 1303 15911 1303C15886.3 1303 15865.5 1290.5 15848.5 1265.5C15831.5 1240.5 15823 1211.83 15823 1179.5C15823 1147.17 15836.7 1114.67 15864 1082C15870 1074.67 15888 1057.33 15918 1030C15948 1002.67 15963 985.167 15963 977.5C15963 969.833 15957 960.333 15945 949C15876.3 887 15842 825.167 15842 763.5C15842 701.833 15865.3 671 15912 671C15952 671 15972 688 15972 722C15972 746 15950 771 15906 797L15906 824C15928.7 846.667 15956 860.333 15988 865L16063 867C16073 943.667 16073 1020.33 16063 1097ZM15226 1556C15226 1574 15215.2 1583 15193.5 1583C15171.8 1583 15152.3 1568 15135 1538C15183.7 1550 15214 1556 15226 1556ZM15580 839L15580 882C15529.3 933.333 15498.7 959 15488 959C15464 959 15445.7 947.667 15433 925C15439 920.333 15457.5 903.167 15488.5 873.5C15519.5 843.833 15539.5 829 15548.5 829C15557.5 829 15564.5 830.667 15569.5 834C15574.5 837.333 15578 839 15580 839ZM14622 1751L14441 1741C14386.3 1741 14332.7 1747 14280 1759C14278.7 1740.33 14306 1709.33 14362 1666C14418 1622.67 14461.7 1601 14493 1601C14524.3 1601 14554.3 1609.33 14583 1626C14597.7 1630 14607.7 1629.33 14613 1624C14611 1621.33 14598 1606 14574 1578C14550 1550 14538 1530.17 14538 1518.5C14538 1506.83 14542 1500.33 14550 1499L14666 1499C14715.3 1536.33 14753.7 1555 14781 1555C14850.3 1555 14908 1505.67 14954 1407L15044 1185C15058 1161.67 15087.7 1127.5 15133 1082.5C15178.3 1037.5 15212.7 1015 15236 1015C15259.3 1015 15281.3 1026 15302 1048C15128.7 1152.67 15042 1287.33 15042 1452C15042 1483.33 15056 1520.67 15084 1564C15112 1607.33 15146.5 1629 15187.5 1629C15228.5 1629 15258.2 1614.17 15276.5 1584.5C15294.8 1554.83 15303.7 1523.67 15303 1491L15336 1491C15371.3 1513.67 15393 1536 15401 1558C15398.3 1579.33 15398.7 1609.33 15402 1648C15458.7 1629.33 15485.7 1620 15483 1620C15514.3 1620 15552.5 1634.67 15597.5 1664C15642.5 1693.33 15671 1720.33 15683 1745L15683 1777L15587 1777C15575 1777.67 15462.7 1764.67 15250 1738C15247.3 1737.33 15216 1728 15156 1710C15131.3 1702 15100.2 1681.83 15062.5 1649.5C15024.8 1617.17 15003.2 1601 14997.5 1601C14991.8 1601 14959 1621.17 14899 1661.5C14839 1701.83 14796.5 1726.83 14771.5 1736.5C14746.5 1746.17 14696.7 1751 14622 1751ZM15972 503C16008.7 503 16041.2 525.333 16069.5 570C16097.8 614.667 16112 654.667 16112 690C16112 725.333 16103.5 755.667 16086.5 781C16069.5 806.333 16046.7 819 16018 819C16009.3 819 16001.7 817.167 15995 813.5C15988.3 809.833 15984 808 15982 808C16006 771.333 16018 741.333 16018 718C16018 694.667 16007.5 671.667 15986.5 649C15965.5 626.333 15939.2 615 15907.5 615C15875.8 615 15847.7 632.667 15823 668C15798.3 703.333 15786 740 15786 778C15786 797.333 15810.7 857.333 15860 958L15810 958C15771.3 958 15731 936.667 15689 894C15615.7 818.667 15575 778.333 15567 773C15511 729.667 15446 708 15372 708C15307.1 708 15254.1 720 15213 744C15199.7 751.333 15189 755 15181 755C15159 755 15140.3 734.333 15125 693C15136.3 674.333 15173 656.667 15235 640C15297 623.333 15342.7 615 15372 615C15438 615 15503.7 631.333 15569 664C15587.7 680 15614.3 698 15649 718C15651.7 713.333 15650 703 15644 687C15555.3 601.667 15461.3 559 15362 559C15317.3 559 15229.3 580.667 15098 624L15098 552C15125.3 530 15174.3 505 15245 477C15243.7 479.667 15243 485.833 15243 495.5C15243 505.167 15247.7 518.167 15257 534.5C15266.3 550.833 15280.8 559 15300.5 559C15320.2 559 15350.8 540.5 15392.5 503.5C15434.2 466.5 15456.7 448 15460 448C15496.7 448 15533.7 463.333 15571 494C15608.3 524.667 15631.7 540 15641 540C15650.3 540 15695.5 506.833 15776.5 440.5C15857.5 374.167 15903.7 336.667 15915 328C15942.3 306.667 15956 247.667 15956 151C16034.7 177 16074 226 16074 298C16074 322 16068.3 350.5 16057 383.5C16045.7 416.5 16034 438.167 16022 448.5C16010 458.833 15990.2 465.833 15962.5 469.5C15934.8 473.167 15916.3 482.667 15907 498L15922 512L15972 503ZM15906 225L15906 268C15890.7 290 15844.2 330.167 15766.5 388.5C15688.8 446.833 15644.7 476 15634 476C15623.3 476 15604.8 466.5 15578.5 447.5L15507 395C15545 389.667 15588 369.167 15636 333.5C15684 297.833 15716 261.667 15732 225L15906 225ZM15032 1117C15032 1140.33 15018 1159 14990 1173C14978.7 1161 14960.3 1145.67 14935 1127C14929 1133 14927.3 1138.83 14930 1144.5C14932.7 1150.17 14941 1163.5 14955 1184.5C14969 1205.5 14976 1222 14976 1234C14976 1246 14965 1263 14943 1285L14852 1162C14842 1148 14796.7 1103.33 14716 1028L14861 1015C14975 1053 15032 1087 15032 1117ZM14711 1099C14739.7 1099 14781.7 1138.83 14837 1218.5C14892.3 1298.17 14920 1348 14920 1368C14920 1388 14905 1416.33 14875 1453C14845 1489.67 14813.7 1508 14781 1508C14771.7 1508 14747 1498 14707 1478L14707 1445C14749.7 1410.33 14771 1356.33 14771 1283C14771 1209.67 14749.3 1173 14706 1173C14691.3 1173 14672.7 1188.67 14650 1220C14627.3 1251.33 14603.2 1267 14577.5 1267C14551.8 1267 14526.7 1257 14502 1237C14504 1189.67 14505.3 1163.67 14506 1159C14512 1131.67 14527.7 1111.67 14553 1099C14590.3 1123.67 14617.8 1136 14635.5 1136C14653.2 1136 14669 1129.83 14683 1117.5C14697 1105.17 14706.3 1099 14711 1099ZM14343 1617C14337 1617 14329.3 1621 14320 1629C14292 1618.33 14266.7 1607.17 14244 1595.5C14221.3 1583.83 14208.3 1570.67 14205 1556L14237 1556C14263 1566.67 14298.3 1587 14343 1617ZM14724 1258L14724 1337C14724.7 1355 14710 1378.67 14680 1408C14650 1437.33 14621.3 1452 14594 1452C14586.7 1452 14570.5 1445.83 14545.5 1433.5C14520.5 1421.17 14504.2 1415 14496.5 1415C14488.8 1415 14476.5 1421.17 14459.5 1433.5C14442.5 1445.83 14426.5 1452 14411.5 1452C14396.5 1452 14381.3 1444 14366 1428C14350.7 1412 14343 1393.33 14343 1372C14343 1350.67 14350.7 1327.67 14366 1303C14382 1327 14408.5 1350.17 14445.5 1372.5C14482.5 1394.83 14514 1406 14540 1406C14566 1406 14589.7 1397.33 14611 1380C14612.3 1374 14613.3 1369.67 14614 1367C14470.7 1365.67 14399 1307.33 14399 1192C14399 1176 14414.7 1140.67 14446 1086C14442 1082 14434.7 1080 14424 1080C14374.7 1116 14350 1164.67 14350 1226C14350 1248.67 14353.7 1270.67 14361 1292C14347 1294 14326.5 1286.33 14299.5 1269C14272.5 1251.67 14259 1230.33 14259 1205C14259 1179.67 14276.8 1161.5 14312.5 1150.5C14348.2 1139.5 14365.3 1113.67 14364 1073C14409.3 1040.33 14438.7 1024.67 14452 1026L14538 1026C14532.7 1036 14516 1061.5 14488 1102.5C14460 1143.5 14446 1176.83 14446 1202.5C14446 1228.17 14456.3 1254.5 14477 1281.5C14497.7 1308.5 14522.3 1322 14551 1322C14579.7 1322 14608.7 1312.17 14638 1292.5C14667.3 1272.83 14688.7 1255 14702 1239C14714.7 1251.67 14722 1258 14724 1258ZM13887 1695L14050 1723C14088.7 1723 14126.3 1710.5 14163 1685.5L14218 1648C14232 1648 14249 1658.67 14269 1680C14251 1698.67 14234.7 1721.67 14220 1749L13766 1749C13813.3 1713 13853.7 1695 13887 1695ZM15022 835.5C15028.7 845.833 15032 855.667 15032 865C15032 874.333 15019.2 892.333 14993.5 919C14967.8 945.667 14940 962.167 14910 968.5C14880 974.833 14846 978 14808 978C14770 978 14739.3 973.667 14716 965L14825 849C14874.3 795 14913.7 741.667 14943 689C14950.3 696.333 14957.5 706.5 14964.5 719.5C14971.5 732.5 14975.3 739.333 14976 740C14932.7 784 14911 816.667 14911 838C14911 847.333 14912.3 852.333 14915 853C14920.3 854.333 14923.7 855.667 14925 857C14939.7 849.667 14957.7 834.333 14979 811L15012 811C15012 817 15015.3 825.167 15022 835.5ZM14441 234L14622 224C14745.3 224 14835 247 14891 293C14920.3 326.333 14959 362.667 15007 402C15029.7 363.333 15067.3 327 15120 293C15172.7 259 15216 240 15250 236C15455.3 209.333 15567.7 196.333 15587 197L15683 197L15683 230C15634.3 307.333 15571 346 15493 346C15485 346 15460.8 336.667 15420.5 318C15380.2 299.333 15355.8 290 15347.5 290C15339.2 290 15334.5 292.5 15333.5 297.5C15332.5 302.5 15331.3 306 15330 308C15331.3 310 15347.7 324.667 15379 352C15395.7 368 15404 383 15404 397C15404 411 15395.3 430.667 15378 456C15360.7 481.333 15346 494 15334 494L15303 494C15305 407.333 15266 364 15186 364C15134 364 15095.3 388.667 15070 438C15051.3 474 15042 511 15042 549C15042 697.278 15114.3 813.611 15259 898L15514 1027C15559.3 1054.33 15582 1081.33 15582 1108C15582 1116.67 15580.2 1124.33 15576.5 1131C15572.8 1137.67 15571 1142 15571 1144L15537 1144C15505 1104 15438.8 1059.33 15338.5 1010C15238.2 960.667 15173.7 924.667 15145 902C15086.3 855.333 15044 797.667 15018 729L14973 584C14952.3 538.667 14925.5 500 14892.5 468C14859.5 436 14827.8 420 14797.5 420C14767.2 420 14733.2 433.833 14695.5 461.5C14657.8 489.167 14639.7 503 14641 503C14634.3 503 14600.3 493 14539 473C14543 451 14550.3 424.333 14561 393C14579 379.667 14599.3 359.667 14622 333L14607 318C14545.7 342 14501.3 354 14474 354C14386 354 14321 308.333 14279 217C14339 228.333 14393 234 14441 234ZM14669 906L14669 1030C14669 1038.67 14665.7 1048.33 14659 1059C14652.3 1069.67 14649 1076.33 14649 1079L14615 1079C14614.3 1075 14614 1014 14614 896C14622 892 14632.5 891.667 14645.5 895C14658.5 898.333 14666.3 902 14669 906ZM15218 425C15208.7 428.333 15192 436.667 15168 450C15144 463.333 15127.3 471.667 15118 475C15116.7 463 15124.8 449.167 15142.5 433.5C15160.2 417.833 15176.8 410 15192.5 410C15208.2 410 15216.7 415 15218 425ZM14054 1676L13887 1648C13850.3 1648 13800.7 1670.33 13738 1715L13714 1732C13701.3 1718.67 13691 1712 13683 1712L13683 1680C13686.3 1642 13716 1603.83 13772 1565.5C13828 1527.17 13877.3 1508 13920 1508C13962.7 1508 13994 1517.33 14014 1536C14034 1554.67 14049 1564 14059 1564C14069 1564 14076 1561.33 14080 1556C14084 1550.67 14088.3 1545.33 14093 1540L14093 1505C14081.7 1497 14061.3 1488.17 14032 1478.5C14002.7 1468.83 13981.8 1456.67 13969.5 1442C13957.2 1427.33 13945 1402.5 13933 1367.5C13921 1332.5 13915 1305.17 13915 1285.5C13915 1265.83 13924.3 1244 13943 1220C13963 1256 14004.8 1294.17 14068.5 1334.5C14132.2 1374.83 14166 1396.67 14170 1400C14192.7 1417.33 14204 1439.67 14204 1467C14204 1474.33 14194.7 1492 14176 1520C14157.3 1548 14148 1567.67 14148 1579C14148 1590.33 14154 1602.33 14166 1615C14137.3 1655.67 14100 1676 14054 1676ZM14930 629C14930 637.667 14900.2 679.5 14840.5 754.5C14780.8 829.5 14740.3 872.667 14719 884C14682.3 847.333 14652.8 829 14630.5 829C14608.2 829 14582.3 850.667 14553 894C14539.7 883.333 14526.2 867.833 14512.5 847.5C14498.8 827.167 14492 810.667 14492 798C14492 785.333 14499.5 767.167 14514.5 743.5C14529.5 719.833 14549.3 708 14574 708C14598.7 708 14620.7 723.5 14640 754.5C14659.3 785.5 14675.3 801 14688 801C14731.3 801 14753 763.667 14753 689C14753 643.444 14743.7 608.222 14725 583.333C14706.3 558.444 14697 541.333 14697 532C14697 522.666 14709.8 509.333 14735.5 492C14761.2 474.666 14779.3 466 14790 466C14820 466 14850.8 485.166 14882.5 523.5C14914.2 561.833 14930 597 14930 629L14930 629ZM13807 1489L13757 1400C13789 1378.67 13816.7 1368 13840 1368C13863.3 1368 13879.3 1376.67 13888 1394L13915 1450L13807 1489ZM14427 1499L14491 1491L14491 1543C14463.7 1557 14442.3 1564 14427 1564C14383.7 1564 14329 1541.67 14263 1497C14260.3 1479.67 14257.2 1461.67 14253.5 1443C14249.8 1424.33 14241 1407.67 14227 1393C14213 1378.33 14162.7 1344 14076 1290C14037.3 1266 14018 1242.83 14018 1220.5C14018 1198.17 14045.2 1164.83 14099.5 1120.5C14153.8 1076.17 14194.8 1046.5 14222.5 1031.5C14250.2 1016.5 14262.7 1004 14260 994C14250 973.333 14238 959 14224 951C14086.7 872.333 14018 816 14018 782C14018 762.667 14028.3 742.333 14049 721L14170 650C14233.3 609.333 14265 565.333 14265 518C14265 500 14260 480.667 14250 460C14367.3 420.667 14426.3 401 14427 401C14442.3 401 14463.7 408 14491 422L14491 473C14488.3 475 14467.2 476 14427.5 476C14387.8 476 14353.8 493.667 14325.5 529C14297.2 564.333 14280 609.667 14274 665C14227.3 711.667 14204 743 14204 759C14204 820.333 14227 866.333 14273 897C14291 909 14300.7 915.667 14302 917C14329.3 957 14343 986.667 14343 1006C14343 1025.33 14329.3 1052.67 14302 1088C14284.7 1103.33 14265.5 1121.67 14244.5 1143C14223.5 1164.33 14213 1187.83 14213 1213.5C14213 1239.17 14224.3 1264.67 14247 1290L14293 1334C14294.3 1356.67 14299.3 1388 14308 1428C14315.3 1446 14333.5 1462.33 14362.5 1477C14391.5 1491.67 14413 1499 14427 1499ZM14502 550L14562 540C14600 540 14633.5 551.833 14662.5 575.5C14691.5 599.167 14706 628.5 14706 663.5C14706 698.5 14701.3 719.667 14692 727C14662.7 690.333 14639.7 668.667 14623 662C14621 661.333 14603.8 661 14571.5 661C14539.2 661 14510.2 673 14484.5 697C14458.8 721 14446 752.333 14446 791C14446 829.667 14452.7 858.667 14466 878C14490 900.667 14520.3 933 14557 975L14449 987C14431 977 14409 969.333 14383 964C14375.7 944 14364.3 916.667 14349 882L14297 849C14265.7 827.667 14250 802.333 14250 773C14250 758.333 14280 728.333 14340 683C14336.7 667 14335.3 639.333 14336 600C14336.7 586 14349 569.5 14373 550.5C14397 531.5 14414.8 522 14426.5 522C14438.2 522 14452.2 526.667 14468.5 536C14484.8 545.333 14496 550 14502 550ZM13560 1661L13539 1534C13539 1522 13541.3 1511 13546 1501C13586 1437 13635.7 1349.67 13695 1239C13742.3 1252.33 13799.7 1265 13867 1277L13867 1311L13773 1332C13725 1346.67 13701 1366.67 13701 1392C13701 1398.67 13719.7 1439.33 13757 1514C13738.3 1528.67 13713.5 1556 13682.5 1596C13651.5 1636 13636 1665 13636 1683C13636 1701 13642 1716.33 13654 1729L13226 1738C13269.3 1714.67 13299.2 1700 13315.5 1694C13331.8 1688 13358 1685 13394 1685L13524 1713C13548 1713 13560 1695.67 13560 1661ZM14554 169L14441 187C14381.7 187 14337.3 179.667 14308 165C14290.7 150.333 14267 133 14237 113L14201 156.5C14189 170.833 14178.7 178 14170 178L13741 178C13735.7 168.667 13727 156.333 13715 141C13706.3 149.667 13694.7 162 13680 178L11711 178C11675.7 130 11637.7 90.3333 11597 59L16241 59L16241 1916L11597 1916C11643 1880.67 11681 1841 11711 1797L13680 1797L13715 1834C13720.3 1824.67 13729 1812.33 13741 1797L14170 1797C14180 1797 14192.7 1806.83 14208 1826.5C14223.3 1846.17 14232.7 1858 14236 1862C14282 1812.67 14350.3 1788 14441 1788L14554 1806L15538 1806L15726 1843C15738.7 1843 15747.7 1835 15753 1819C15791.7 1819 15845.7 1818.67 15915 1818C15906.3 1840.67 15897.3 1856.33 15888 1865L15977 1871C16014.3 1871 16047.7 1848.83 16077 1804.5C16106.3 1760.17 16121 1721.67 16121 1689L16121 1402C16121 1393.33 16126.5 1379.33 16137.5 1360C16148.5 1340.67 16154.7 1327.83 16156 1321.5C16157.3 1315.17 16158 1297.33 16158 1268C16158 1238.67 16155.8 1220.17 16151.5 1212.5C16147.2 1204.83 16141 1194.5 16133 1181.5C16125 1168.5 16121 1157.67 16121 1149L16121 807C16121 798.333 16126.5 786 16137.5 770C16148.5 754 16154.7 742.5 16156 735.5C16157.3 728.5 16158 714.667 16158 694L16121 572L16121 267C16121 220.333 16101.2 181.333 16061.5 150C16021.8 118.667 15985 103 15951 103C15917 103 15896 105 15888 109C15894.7 122.333 15904 138.333 15916 157L15750 157C15750 139.667 15742 131 15726 131L15538 169L14554 169ZM14315 367C14271.7 395.667 14245 409.667 14235 409L14204 409C14233.3 389.667 14270.3 375.667 14315 367ZM13976 884L14013 875C14021.7 875 14028.5 877 14033.5 881C14038.5 885 14048.2 892.167 14062.5 902.5L14124 949C14159.3 976.333 14176.3 994.667 14175 1004C14136.3 1030 14075.7 1077 13993 1145C13981 1120.33 13969.7 1108 13959 1108L13904 1179C13882.7 1206.33 13860.8 1220 13838.5 1220C13816.2 1220 13790.7 1214.33 13762 1203C13733.3 1191.67 13716 1180.33 13710 1169C13718.7 1135 13735.7 1099.33 13761 1062C13788.3 1080 13814.3 1089 13839 1089C13863.7 1089 13888.7 1079.67 13914 1061C13939.3 1042.33 13952 1019.83 13952 993.5C13952 967.167 13938.7 947 13912 933C13885.3 919 13861.7 912 13841 912C13774.3 912 13725.7 954.333 13695 1039L13632 1245C13572 1366.33 13517.3 1458.67 13468 1522C13499.3 1555.33 13511 1597 13503 1647C13461 1635 13425 1629 13395 1629C13365 1629 13303.2 1646.17 13209.5 1680.5C13115.8 1714.83 13026 1732 12940 1732C12854 1732 12785 1722.67 12733 1704C12681 1685.33 12632.8 1663.5 12588.5 1638.5C12544.2 1613.5 12519.2 1601 12513.5 1601C12507.8 1601 12494.2 1609.5 12472.5 1626.5C12450.8 1643.5 12436 1653.33 12428 1656C12417.3 1580.67 12397 1515 12367 1459C12363 1451.67 12348.5 1430.67 12323.5 1396C12298.5 1361.33 12286 1339.33 12286 1330C12286 1320.67 12306 1268.33 12346 1173C12400 1303 12477.8 1408.5 12579.5 1489.5C12681.2 1570.5 12800.7 1611 12938 1611C13178.7 1611 13367 1493.67 13503 1259L13589 992C13642.3 858 13720 791 13822 791C13852 791 13880.2 806.5 13906.5 837.5C13932.8 868.5 13956 884 13976 884ZM13864 346L14054 308C14093.3 308 14123.3 321.333 14144 348C14142.7 367.333 14141.3 392.333 14140 423L14189 477C14199 489 14204 505.667 14204 527C14204 564.333 14169.2 601.333 14099.5 638C14029.8 674.667 13987.7 709.333 13973 742C13967.7 755.333 13959.3 775 13948 801C13926 757.667 13915 724.833 13915 702.5C13915 680.167 13919.8 650.667 13929.5 614C13939.2 577.333 13950.2 551.833 13962.5 537.5C13974.8 523.167 14006.7 513.667 14058 509C14074 496.333 14082 483.667 14082 471L14075 438L14033 438C14030.3 439.333 14018.2 449 13996.5 467C13974.8 485 13960 494 13952 494C13914 494 13865.3 477.667 13806 445C13730 403.667 13692 354.667 13692 298C13692 291.333 13699.3 273 13714 243C13783.3 311.667 13833.3 346 13864 346ZM13836 522L13895 532L13895 565C13885 588.333 13875 605 13865 615C13862.3 613.667 13843.7 608.667 13809 600C13789 594.667 13778 582 13776 562C13802.7 535.333 13822.7 522 13836 522ZM14050 252L13882 290C13856 290 13838.3 287.5 13829 282.5C13819.7 277.5 13798.7 258.667 13766 226L14220 226C14232.7 245.333 14245.7 274.667 14259 314C14255.7 316.667 14246.8 320.167 14232.5 324.5C14218.2 328.833 14209.7 332.667 14207 336C14202.3 315.333 14180.8 296.167 14142.5 278.5C14104.2 260.833 14073.3 252 14050 252ZM13510 262L13385 298C13362.3 298 13334.2 289.333 13300.5 272C13266.8 254.667 13242 243.333 13226 238L13542 238C13612.7 239.333 13650 242.333 13654 247C13644 262.333 13639 279.333 13639 298C13639 346.667 13681.3 413.333 13766 498C13728.7 554 13710 583.667 13710 587C13710 609.667 13731.3 629 13774 645C13801.3 655 13825.7 661.333 13847 664C13851 670 13858 679.333 13868 692L13868 734C13793.3 746.667 13738.3 756.333 13703 763C13645.7 628.333 13593 530.667 13545 470C13557.7 429.333 13564 388.667 13564 348C13564 290.667 13546 262 13510 262ZM13543 968C13543 977.333 13537.5 998.333 13526.5 1031L13508 1086C13420.7 1404.67 13232 1564 12942 1564C12777.3 1564 12640.8 1508 12532.5 1396C12424.2 1284 12370 1151.17 12370 997.5C12370 843.833 12425.8 707.5 12537.5 588.5C12649.2 469.5 12778 410 12924 410C12992.7 410 13058 420.333 13120 441L13267 515C13312.3 537 13369.7 604.333 13439 717C13508.3 829.667 13543 913.333 13543 968ZM12039 1667L12217 1713C12263 1713 12286 1679 12286 1611C12286 1591.24 12272 1563.79 12244 1528.68C12216 1493.56 12202 1472.17 12202 1464.5C12202 1456.83 12208.7 1444.83 12222 1428.5C12235.3 1412.17 12242.3 1402.67 12243 1400C12247.7 1398.67 12254.7 1397.67 12264 1397C12319.3 1465.67 12350.3 1519.67 12357 1559C12358.3 1564.33 12359.7 1608 12361 1690C12361 1704 12365.3 1712 12374 1714C12372.7 1713.33 12379.8 1713 12395.5 1713C12411.2 1713 12434.5 1705.33 12465.5 1690C12496.5 1674.67 12516 1667 12524 1667C12532 1667 12554.8 1677.33 12592.5 1698C12630.2 1718.67 12655.3 1732 12668 1738L11849 1738C11935.7 1690.67 11999 1667 12039 1667ZM12658 237C12594.7 284.333 12556.8 308 12544.5 308C12532.2 308 12509.7 300.333 12477 285C12444.3 269.667 12422.5 262 12411.5 262C12400.5 262 12387.3 270.333 12372 287C12372 416.333 12332.3 516.333 12253 587C12251.7 585 12244.5 575.167 12231.5 557.5C12218.5 539.833 12212 527 12212 519C12212 511 12221.8 497 12241.5 477C12261.2 457 12272 445 12274 441C12294.7 397.667 12305 364.833 12305 342.5C12305 320.167 12299.2 301.167 12287.5 285.5C12275.8 269.833 12261.3 262 12244 262C12247.3 262 12224.3 269.667 12175 285C12125.7 300.333 12083.3 308 12048 308C12012.7 308 11983.7 303.333 11961 294C11938.3 284.667 11901 265.667 11849 237L12658 237ZM13389 346L13504 337C13506 406.333 13501 454 13489 480L13577 617C13622.3 692.333 13645 750.333 13645 791C13645 801.667 13636.5 817.667 13619.5 839C13602.5 860.333 13587.3 875.333 13574 884C13528 724.667 13445.5 598.167 13326.5 504.5C13207.5 410.833 13086.8 364 12964.5 364C12842.2 364 12725 399 12613 469C12501 539 12420.7 636.333 12372 761C12339.3 843.667 12320.3 915.333 12315 976L12301 1141C12285 1249 12237.7 1348.33 12159 1439C12119 1439 12093 1450.67 12081 1474C12187 1507.33 12240 1554.33 12240 1615C12240 1626.33 12232.7 1646.67 12218 1676C12160.7 1650 12125.3 1635.67 12112 1633C12098.7 1630.33 12073.7 1629 12037 1629C12000.3 1629 11963.8 1635.67 11927.5 1649L11818 1691C11816 1691.67 11794.3 1696.83 11753 1706.5C11711.7 1716.17 11684.3 1728 11671 1742C11656.3 1768 11634.3 1800.33 11605 1839C11590.3 1851 11556.5 1867.17 11503.5 1887.5C11450.5 1907.83 11405.3 1918 11368 1918L4976 1918C4948.67 1918 4907.67 1909.17 4853 1891.5C4798.33 1873.83 4762.67 1858.17 4746 1844.5C4729.33 1830.83 4714.67 1811.17 4702 1785.5C4689.33 1759.83 4680.33 1745.33 4675 1742C4639 1722 4549.33 1688.33 4406 1641C4382.67 1633 4345.5 1629 4294.5 1629C4243.5 1629 4203.83 1636.83 4175.5 1652.5L4133 1676C4125.67 1676 4119.17 1668.83 4113.5 1654.5C4107.83 1640.17 4105 1627 4105 1615C4105 1583 4122.83 1553.33 4158.5 1526C4194.17 1498.67 4226.67 1482.33 4256 1477C4261.33 1474.33 4264 1468.33 4264 1459C4250 1451.67 4223.33 1445 4184 1439C4128 1379 4083.67 1292.33 4051 1179C4033 1115.67 4023.67 1062.67 4023 1020C4021.67 903.333 3986 784.667 3916 664C3834 522.667 3730.33 436 3605 404C3503.67 377.333 3432.67 364 3392 364C3262 364 3137.67 410.833 3019 504.5C2900.33 598.167 2815.67 724.667 2765 884C2721 834 2699 801.167 2699 785.5C2699 748.145 2725.33 687.39 2778 603.234C2830.67 519.078 2857 473.334 2857 466C2857 458.666 2848.33 426 2831 368C2835 360 2844.67 349.333 2860 336C2888 342.667 2921.67 346 2961 346C3000.33 346 3063.5 328.833 3150.5 294.5C3237.5 260.167 3333.67 243 3439 243C3453.67 243 3490.33 249.167 3549 261.5C3607.67 273.833 3648.5 284.5 3671.5 293.5C3694.5 302.5 3722.67 316.5 3756 335.5C3789.33 354.5 3809.67 364 3817 364C3824.33 364 3834.67 357.833 3848 345.5C3861.33 333.167 3871.33 327 3878 327L3917 327C3919 379.667 3948.33 458 4005 562C4061.67 666 4090.67 718.667 4092 720C4112.67 769.333 4125.33 840.167 4130 932.5C4134.67 1024.83 4139.33 1084.67 4144 1112C4160.67 1203.33 4206.67 1297.5 4282 1394.5C4357.33 1491.5 4439.67 1553 4529 1579C4593 1598.33 4655 1612.67 4715 1622L4798 1706C4854 1760.67 4897.67 1788 4929 1788L11415 1788C11417 1788 11429 1783.67 11451 1775C11486.3 1756.33 11510.7 1741 11524 1729C11550 1697 11584.7 1661.67 11628 1623C11642.7 1616.33 11663.2 1612.17 11689.5 1610.5C11715.8 1608.83 11729.7 1607.67 11731 1607C11765 1600.33 11817.3 1578.67 11888 1542C12000 1485.33 12091.3 1382 12162 1232C12185.3 1182.67 12202.5 1094.33 12213.5 967C12224.5 839.667 12236.5 759.167 12249.5 725.5C12262.5 691.833 12293.8 630.833 12343.5 542.5C12393.2 454.167 12421 382.333 12427 327L12467 327C12475 327 12485.8 333.167 12499.5 345.5C12513.2 357.833 12523.3 364 12530 364C12536.7 364 12556.5 354.5 12589.5 335.5C12622.5 316.5 12651.2 302.333 12675.5 293C12699.8 283.667 12740.5 273 12797.5 261C12854.5 249 12890.3 243 12905 243C13002.3 243 13099 260.167 13195 294.5C13291 328.833 13355.7 346 13389 346ZM12165 992C12165 1103.33 12129 1215 12057 1327C11985 1439 11886.3 1513.67 11761 1551C11725 1555.67 11675.3 1564 11612 1576C11598.7 1579.33 11569.2 1607.67 11523.5 1661C11477.8 1714.33 11435.3 1741 11396 1741L4948 1741C4927.33 1741 4900.33 1731.33 4867 1712C4833.67 1692.67 4810 1670.67 4796 1646C4774 1604 4752.67 1580.67 4732 1576C4695.33 1571.33 4645.33 1563 4582 1551C4456 1513.67 4357.33 1439 4286 1327C4214.67 1215 4179 1107.5 4179 1004.5C4179 901.5 4201.33 804 4246 712C4290.67 620 4356.33 547 4443 493C4529.67 439 4602.17 409.5 4660.5 404.5C4718.83 399.5 4758 394.333 4778 389C4783.33 387 4804 360.667 4840 310C4876 259.333 4905.67 234 4929 234L11415 234C11440.3 234 11470.7 259.333 11506 310C11541.3 360.667 11561.3 387 11566 389C11596 399 11636 407.667 11686 415C11736 422.333 11767.3 428 11780 432C11830.7 445.333 11891.5 481.833 11962.5 541.5C12033.5 601.167 12077.7 656.167 12095 706.5L12146 854C12158.7 895.333 12165 941.333 12165 992ZM12248 318L12248 389C12248.7 421.667 12226.5 449.5 12181.5 472.5C12136.5 495.5 12105.3 506.333 12088 505C12083.3 508.333 12081 514.667 12081 524C12098.3 530 12125.7 536.333 12163 543C12207.7 599.667 12230 635 12230 649C12230 663 12212.7 704.333 12178 773C12140 653 12059.3 551.5 11936 468.5C11812.7 385.5 11697.7 346.333 11591 351C11591 350.333 11563 315.667 11507 247C11475.7 207 11445 187 11415 187L4929 187C4903.67 187 4869.33 211.667 4826 261L4753 351C4667.67 351 4568.33 377.667 4455 431C4395 459.667 4339 507.333 4287 574C4235 640.667 4194.33 707 4165 773C4131 705 4114 663.833 4114 649.5C4114 635.167 4136.33 599.667 4181 543C4199.67 541.667 4218.33 540 4237 538C4255.67 534.667 4264.67 525.333 4264 510L4169 479C4120.33 456.333 4096 425.333 4096 386L4096 318C4206 342 4276.5 354 4307.5 354C4338.5 354 4378.5 344.667 4427.5 326L4564 273C4583.33 268.333 4604 262.833 4626 256.5C4648 250.167 4664 242 4674 232C4685.33 206 4707 173.667 4739 135C4817 83 4889.67 57 4957 57L11387 57C11402.3 57 11440 67.8333 11500 89.5C11560 111.167 11595.7 127 11607 137C11618.3 147 11630.8 164.167 11644.5 188.5C11658.2 212.833 11667.5 227.833 11672.5 233.5C11677.5 239.167 11732.2 260.667 11836.5 298C11940.8 335.333 12009.5 354 12042.5 354C12075.5 354 12144 342 12248 318ZM4128 1713L4305 1667C4367.67 1667 4431 1690.67 4495 1738L3676 1738C3692.67 1731.33 3719.5 1717.83 3756.5 1697.5C3793.5 1677.17 3815.33 1667 3822 1667C3828.67 1667 3847.5 1674.67 3878.5 1690C3909.5 1705.33 3929 1713 3937 1713L3967 1713C3975.67 1711 3981.33 1703 3984 1689C3982.67 1655.67 3983.33 1612.33 3986 1559C3990.67 1532.33 4004.83 1499.83 4028.5 1461.5C4052.17 1423.17 4076.67 1401.67 4102 1397C4102.67 1399 4109.33 1409.17 4122 1427.5C4134.67 1445.83 4141 1460.5 4141 1471.5C4141 1482.5 4138 1487.67 4132 1487C4128 1493.67 4114.67 1511.17 4092 1539.5C4069.33 1567.83 4058 1591.67 4058 1611C4058 1679 4081.33 1713 4128 1713ZM4495 237L4388 290C4360 302 4327 308 4289 308C4234.85 308 4182.85 296 4133 272C4118.33 265.333 4104.83 262 4092.5 262C4080.17 262 4068.17 270.333 4056.5 287C4044.83 303.667 4039 324.833 4039 350.5C4039 397.285 4062 441.452 4108 483C4124.67 498.333 4133 510.833 4133 520.5C4133 530.167 4115.67 552.333 4081 587C4009 503.667 3972.33 403.333 3971 286C3957.67 270 3945.17 262 3933.5 262C3921.83 262 3899.67 269.667 3867 285C3834.33 300.333 3814 308 3806 308C3798 308 3777.5 297.667 3744.5 277C3711.5 256.333 3688.67 243 3676 237L4495 237ZM2332 875L2368 884C2393.33 884 2416.17 868.5 2436.5 837.5C2456.83 806.5 2485.33 791 2522 791C2594.67 791 2654.33 825.667 2701 895C2731.67 941 2761.33 1012 2790 1108C2818.67 1204 2838.67 1260.67 2850 1278C2992.67 1500 3178 1611 3406 1611C3680 1611 3877 1465 3997 1173L4058 1331C4058 1338.33 4041.67 1366.5 4009 1415.5C3976.33 1464.5 3956 1500.67 3948 1524C3940.67 1556 3930 1600 3916 1656C3907.33 1654 3892.33 1644.33 3871 1627C3849.67 1609.67 3835.17 1601 3827.5 1601C3819.83 1601 3795.17 1613.83 3753.5 1639.5C3653.39 1701.17 3548.45 1732 3438.67 1732C3328.89 1732 3227.5 1714.83 3134.5 1680.5C3041.5 1646.17 2984.67 1629 2964 1629L2839 1629L2839 1579C2839 1570.33 2844.83 1558.17 2856.5 1542.5C2868.17 1526.83 2874.67 1517.33 2876 1514C2796.67 1432 2741.67 1342 2711 1244C2696.33 1204 2677.67 1148.33 2655 1077C2626.33 967 2576 912 2504 912C2478 912 2452.83 918.667 2428.5 932C2404.17 945.333 2392 963.333 2392 986C2392 1008.67 2403.5 1031.5 2426.5 1054.5C2449.5 1077.5 2475 1089 2503 1089C2531 1089 2558 1080 2584 1062C2617.33 1112 2634 1143.67 2634 1157C2634 1170.33 2632.33 1178.67 2629 1182C2625.67 1185.33 2624 1188 2624 1190C2544 1210 2505.33 1220 2508 1220C2480 1220 2459.5 1205.67 2446.5 1177C2433.5 1148.33 2411 1125.33 2379 1108L2350 1145L2247 1060C2205 1026 2178.67 999.667 2168 981C2185.33 972.333 2214.83 952.5 2256.5 921.5C2298.17 890.5 2323.33 875 2332 875ZM3806 588.5C3918 707.5 3974 843.833 3974 997.5C3974 1151.17 3919.67 1284 3811 1396C3702.33 1508 3566 1564 3402 1564C3107.33 1564 2918.33 1404.67 2835 1086C2812.33 999.333 2801 960 2801 968C2801 933.333 2819.17 878.333 2855.5 803C2891.83 727.667 2923.67 671.833 2951 635.5C2978.33 599.167 3015.33 562.833 3062 526.5C3161.76 448.833 3282.69 410 3424.82 410C3566.94 410 3694 469.5 3806 588.5ZM2820 1713L2950 1685C2978 1685 3006 1690.83 3034 1702.5L3118 1738L2700 1738C2702.67 1726.67 2704 1715.33 2704 1704C2704 1644.67 2665.33 1581.33 2588 1514C2624.67 1439.33 2643 1398.67 2643 1392C2643 1366 2617 1345.33 2565 1330C2535.67 1324 2506 1317.33 2476 1310L2487 1267L2508 1267C2528 1267 2550.67 1262.33 2576 1253C2601.33 1243.67 2616.33 1239 2621 1239L2650 1239C2684.67 1295.67 2733.67 1383 2797 1501C2801.67 1511 2804 1522 2804 1534L2783 1659C2783 1695 2795.33 1713 2820 1713ZM2294 1723L2457 1695C2473 1695 2495.5 1699.67 2524.5 1709C2553.5 1718.33 2571 1731.67 2577 1749L2124 1749C2110 1721.67 2094 1698.67 2076 1680C2097.33 1658.67 2112 1648 2120 1648C2128 1648 2149.17 1660.5 2183.5 1685.5C2217.83 1710.5 2254.67 1723 2294 1723ZM2587 1401L2537 1490C2525.67 1484 2489.67 1470.67 2429 1450L2456 1394C2468 1376.67 2488.67 1368 2518 1368C2547.33 1368 2570.33 1379 2587 1401ZM2252 1540C2262 1556 2273.83 1564 2287.5 1564C2301.17 1564 2314.33 1554.67 2327 1536C2339.67 1517.33 2365.83 1508 2405.5 1508C2445.17 1508 2487.17 1518.67 2531.5 1540C2575.83 1561.33 2608.67 1585 2630 1611C2651.33 1637 2661.67 1660 2661 1680L2661 1712C2653.67 1712 2643 1718.67 2629 1732C2557.67 1676 2500.33 1648 2457 1648L2289 1676C2243.67 1676 2206.67 1655.67 2178 1615C2186 1600.33 2190 1584.83 2190 1568.5C2190 1552.17 2181.67 1532.67 2165 1510C2148.33 1487.33 2140 1473 2140 1467C2140 1438.33 2157.33 1412.33 2192 1389L2282 1338C2336.67 1300.67 2378 1261.33 2406 1220C2421.33 1265.33 2429 1294.5 2429 1307.5C2429 1320.5 2418.17 1351 2396.5 1399C2374.83 1447 2353.33 1473 2332 1477C2300.67 1482.33 2274 1491.67 2252 1505L2252 1540ZM2140 1556C2135.33 1566 2117.83 1580.67 2087.5 1600C2057.17 1619.33 2037.67 1629 2029 1629C2011 1629 2002 1620.67 2002 1604C2068 1571.33 2103.67 1555.33 2109 1556L2140 1556ZM1790 1806L1903 1788C1966.33 1788 2010.67 1795 2036 1809C2053.33 1823.67 2077 1841.33 2107 1862C2107.67 1861.33 2117 1850.33 2135 1829C2153 1807.67 2166 1797 2174 1797L2603 1797C2609 1806.33 2617.67 1818.67 2629 1834L2665 1797L4632 1797C4668 1845 4706 1884.67 4746 1916L103 1916L103 59L4737 59C4743 59 4746 61.3333 4746 66C4746 70.6667 4728.67 88.1667 4694 118.5C4659.33 148.833 4638.67 168.667 4632 178L2665 178C2656.33 168 2644.33 155.667 2629 141C2623.67 149.667 2615 162 2603 178L2174 178C2164 178 2151.67 168.167 2137 148.5C2122.33 128.833 2112.67 117 2108 113C2092.67 133 2063 150.333 2019 165C1975 179.667 1936.33 187 1903 187L1790 169L806 169L619 131C609 131 599 139 589 155C551 155 497.333 155.667 428 157C434 143.667 443.333 127.667 456 109L368 103C330.667 109.667 297.167 131.5 267.5 168.5C237.833 205.5 223 237.667 223 265L223 574L186 694C186 718.667 186.667 733.833 188 739.5C189.333 745.167 195.5 756 206.5 772C217.5 788 223 798.667 223 804L223 1151C223 1160.33 217.5 1172.83 206.5 1188.5C195.5 1204.17 189.333 1213.5 188 1216.5C186.667 1219.5 186 1235.67 186 1265C186 1294.33 186.667 1314.33 188 1325C189.333 1335.67 195.5 1349.5 206.5 1366.5C217.5 1383.5 223 1394.67 223 1400L223 1691C223 1741 241 1783.5 277 1818.5C313 1853.5 357 1871 409 1871C432.333 1871 448 1869 456 1865C450 1852.33 440.667 1836.67 428 1818L594 1818C594 1834.67 602.333 1843 619 1843L806 1806L1790 1806ZM3109 236C3030.33 277.333 2983.33 298 2968 298C2952.67 298 2928.17 292 2894.5 280C2860.83 268 2840.67 262 2834 262C2797.33 262 2779 290.333 2779 347C2779 359 2785.33 401 2798 473C2748.67 529.667 2696 626.667 2640 764C2582.67 744.667 2528 735 2476 735L2476 693C2482 683 2509.83 668.833 2559.5 650.5C2609.17 632.167 2634 611 2634 587C2634 573.667 2615.33 541 2578 489C2660.67 432.333 2702 359.333 2702 270C2702 258.667 2701.33 247.333 2700 236L3109 236ZM2045 1148C2071.67 1172.67 2085 1196.83 2085 1220.5C2085 1244.17 2068.33 1264.33 2035 1281C2021 1281.67 2004 1284 1984 1288C1987.33 1278 1989 1258.67 1989 1230C1989 1130 1963.33 1080 1912 1080C1898 1080 1893.33 1082 1898 1086C1929.33 1148.67 1945 1184 1945 1192C1945 1219.33 1937.17 1249 1921.5 1281C1905.83 1313 1887.67 1333.33 1867 1342C1843.15 1352 1807.82 1357 1761 1357C1747 1358.33 1737 1363.67 1731 1373C1753 1395 1777.33 1406 1804 1406C1830.67 1406 1863.33 1394.5 1902 1371.5C1940.67 1348.5 1966.33 1325.67 1979 1303C1979 1316.33 1986 1323 2000 1323L2000 1402C1994.67 1410 1982.83 1420.33 1964.5 1433C1946.17 1445.67 1932.5 1452 1923.5 1452C1914.5 1452 1901.17 1445.83 1883.5 1433.5C1865.83 1421.17 1853.33 1415 1846 1415C1838.67 1415 1822.67 1421.17 1798 1433.5C1773.33 1445.83 1757 1452 1749 1452C1713 1452 1682.33 1435.83 1657 1403.5C1631.67 1371.17 1619 1341.67 1619 1315C1619 1288.33 1626.67 1263 1642 1239C1700 1294.33 1745.67 1322 1779 1322C1812.33 1322 1840.67 1309.67 1864 1285C1887.33 1260.33 1899 1232.5 1899 1201.5C1899 1170.5 1888.67 1138.67 1868 1106C1849.33 1085.33 1828.67 1058.67 1806 1026L1893 1026C1925.67 1025.33 1949.83 1038.83 1965.5 1066.5L2008 1142C2017.33 1143.33 2029.67 1145.33 2045 1148ZM2448 532L2508 522C2515.33 522 2527.33 526.833 2544 536.5C2560.67 546.167 2569 558 2569 572C2569 586 2554.67 596 2526 602C2497.33 608 2482 612.333 2480 615C2478 612.333 2472.17 605.167 2462.5 593.5C2452.83 581.833 2448 571.333 2448 562L2448 532ZM1853 1491L1917 1499C2006.33 1499 2051 1452 2051 1358C2051 1350.67 2050.67 1343 2050 1335C2062.67 1325 2079.33 1309 2100 1287C2120.67 1252.33 2131 1226.83 2131 1210.5C2131 1194.17 2120.67 1168.67 2100 1134C2083.33 1122 2064 1106.67 2042 1088C2014.67 1052 2001 1020.83 2001 994.5C2001 968.167 2014.67 942 2042 916C2062 902.667 2084.67 884 2110 860C2130 815.333 2140 782 2140 760C2140 738 2116.33 706.333 2069 665C2066.33 623 2058 590 2044 566C2010.67 506 1966.67 476 1912 476C1890.67 476 1871 478.667 1853 484L1853 422C1879.67 408 1899.33 401 1912 401C1924.67 401 1955.83 410 2005.5 428C2055.17 446 2084.33 456.333 2093 459C2093 462.333 2092.33 475.167 2091 497.5C2088.49 539.549 2095.7 573.978 2112.62 600.787C2129.54 627.596 2161 651.666 2207 673C2253 694.333 2281.67 710.333 2293 721C2315.67 739 2327 759.333 2327 782C2327 804.667 2288.33 842.5 2211 895.5C2133.67 948.5 2091.67 980.667 2085 992C2090.33 1000 2132 1033.5 2210 1092.5C2288 1151.5 2327 1192.33 2327 1215C2327 1225 2319.83 1239 2305.5 1257C2291.17 1275 2278.67 1286.33 2268 1291C2218.67 1312.33 2174.33 1341.83 2135 1379.5C2095.67 1417.17 2077.67 1456 2081 1496C2067 1510.67 2041.83 1525.67 2005.5 1541C1969.17 1556.33 1941.5 1564 1922.5 1564C1903.5 1564 1880.33 1557 1853 1543C1853 1543 1853 1491 1853 1491ZM1842 1237C1821.33 1257 1797.5 1267 1770.5 1267C1743.5 1267 1718 1251.33 1694 1220C1670 1188.67 1649.67 1173 1633 1173C1616.33 1173 1602.17 1185.83 1590.5 1211.5C1578.83 1237.17 1573 1264.67 1573 1294C1573 1366 1594.33 1416.33 1637 1445L1637 1478C1597 1498 1572.67 1508 1564 1508C1536 1508 1505.67 1491.17 1473 1457.5C1440.33 1423.83 1424 1395 1424 1371C1424 1347 1452 1295.67 1508 1217C1564 1138.33 1605.67 1099 1633 1099C1641 1099 1653.5 1105.17 1670.5 1117.5C1687.5 1129.83 1703 1136 1717 1136C1731 1136 1755.67 1123.67 1791 1099C1817 1115 1833 1137.33 1839 1166C1840.33 1170.67 1841.33 1194.33 1842 1237ZM2289 308L2480 346C2514.67 346 2564.67 311.667 2630 243C2644.67 273 2652 291.333 2652 298C2652 348 2621.67 393.167 2561 433.5C2500.33 473.833 2444 494 2392 494C2384 494 2367.67 484.667 2343 466C2318.33 447.333 2302 438 2294 438C2272 438 2261 449 2261 471C2261 488.333 2269.33 501 2286 509C2334.67 515 2365.67 524.167 2379 536.5C2392.33 548.833 2404 574 2414 612C2424 650 2429 682.833 2429 710.5C2429 738.167 2418 768.333 2396 801C2383.33 773 2360.67 736 2328 690C2309.33 674 2277.67 652.667 2233 626C2188.33 599.333 2158.33 579.333 2143 566C2141 557.333 2140 541.333 2140 518C2140 494.667 2150.17 476.167 2170.5 462.5C2190.83 448.833 2201 424.333 2201 389C2201 377 2200.33 363.667 2199 349C2220.33 321.667 2250.33 308 2289 308ZM1903 1741L1721 1751C1643 1751 1586.5 1743.83 1551.5 1729.5C1516.5 1715.17 1474.17 1690.17 1424.5 1654.5C1374.83 1618.83 1348 1601 1344 1601C1330 1601 1324.67 1601.67 1328 1603C1315.33 1619 1297 1639 1273 1663C1210.33 1703.67 1150.67 1728.67 1094 1738C918.667 1766 806.333 1779 757 1777L661 1777L661 1745C678.333 1711.67 709.167 1682.5 753.5 1657.5C797.833 1632.5 829 1620 847 1620C865 1620 882.5 1624.67 899.5 1634C916.5 1643.33 928.333 1648 935 1648C949.667 1648 953.333 1645.67 946 1641C938 1602.33 936.833 1574.83 942.5 1558.5C948.167 1542.17 958.333 1526.67 973 1512C987.667 1497.33 1000.33 1490.33 1011 1491L1041 1491C1042.33 1529 1052.83 1561.5 1072.5 1588.5C1092.17 1615.5 1119.83 1629 1155.5 1629C1191.17 1629 1224.67 1608.5 1256 1567.5C1287.33 1526.5 1303 1488 1303 1452C1303 1386 1284.17 1317.83 1246.5 1247.5C1208.83 1177.17 1154 1120 1082 1076C1062 1064 1052 1050.67 1052 1036C1080 1022 1101.33 1015 1116 1015C1130.67 1015 1153 1028.67 1183 1056L1279 1155.5C1311 1188.5 1339.33 1248.33 1364 1335C1406 1481.67 1472.67 1555 1564 1555C1597.33 1555 1635.33 1536.67 1678 1500L1795 1500C1795 1506 1798.33 1513.33 1805 1522L1730 1622L1753 1622C1798.33 1608 1834.5 1601 1861.5 1601C1888.5 1601 1927.83 1621.17 1979.5 1661.5C2031.17 1701.83 2059.67 1734 2065 1758C2003.67 1746.67 1949.67 1741 1903 1741ZM1209 1543C1187.67 1569.67 1167.17 1583 1147.5 1583C1127.83 1583 1118 1574 1118 1556C1110 1556 1140.33 1551.67 1209 1543ZM1730 896L1730 1079L1695 1079C1681.67 1025 1675 988 1675 968C1675 921.333 1686 893.667 1708 885C1714.67 891 1722 894.667 1730 896ZM1628 1034C1594 1053.33 1556.17 1089 1514.5 1141L1400 1285C1378.67 1263 1368 1246.17 1368 1234.5C1368 1222.83 1375.67 1206.67 1391 1186C1406.33 1165.33 1414 1151.17 1414 1143.5C1414 1135.83 1412.33 1130.33 1409 1127C1393 1139.67 1371 1155 1343 1173C1341.67 1171 1336.17 1163.17 1326.5 1149.5C1316.83 1135.83 1312 1125 1312 1117C1312 1085.67 1342.67 1060.83 1404 1042.5C1465.33 1024.17 1514.17 1015 1550.5 1015C1586.83 1015 1612.67 1021.33 1628 1034ZM1782 540L1843 550C1850.33 550 1862.17 545.333 1878.5 536C1894.83 526.667 1906 522 1912 522C1943.33 522 1967.67 534 1985 558C2002.33 582 2011 605.833 2011 629.5C2011 653.167 2008.33 671.333 2003 684L2052 721C2080 742.333 2094 759.333 2094 772C2094 784.667 2088 800.833 2076 820.5C2064 840.167 2050.67 854 2036 862C2023.33 865.333 2009.33 872 1994 882C1988.67 902 1980 927.333 1968 958L1893 987L1798 987L1793 965L1867 897C1888.33 874.333 1899 843.167 1899 803.5C1899 763.833 1887.5 730.167 1864.5 702.5C1841.5 674.833 1811.83 661 1775.5 661C1739.17 661 1720 661.333 1718 662C1702 668 1679.33 689.333 1650 726L1638 637C1668.67 572.333 1716.67 540 1782 540ZM2461 290L2294 252C2272 252 2242.17 260.5 2204.5 277.5C2166.83 294.5 2144.67 313.667 2138 335C2110.67 321.667 2093 315 2085 315C2091.67 294.333 2104.67 264.667 2124 226L2577 226C2545.67 258.667 2525.33 277.5 2516 282.5C2506.67 287.5 2488.33 290 2461 290ZM2136 395C2138 399.667 2135.33 404.667 2128 410C2082.67 395.333 2053 380.667 2039 366C2061.67 371.333 2094 381 2136 395ZM1826 738.5C1843.33 758.833 1852 782.5 1852 809.5C1852 836.5 1831.33 864.667 1790 894C1761.33 850.667 1736.33 829 1715 829C1693.67 829 1663.33 847.333 1624 884C1601.33 869.333 1560.67 825.167 1502 751.5C1443.33 677.833 1414 637 1414 629C1414 605 1429.17 571.833 1459.5 529.5C1489.83 487.167 1521.33 466 1554 466C1616 490 1647 513 1647 535C1647 557 1641 570.333 1629 575C1617 579.667 1609.33 584.333 1606 589C1596.67 605 1592 638.333 1592 689C1592 763.667 1613.33 801 1656 801C1679.33 801 1695.67 785.5 1705 754.5C1714.33 723.5 1732.5 708 1759.5 708C1786.5 708 1808.67 718.167 1826 738.5ZM1628 965C1602.67 973.667 1570.33 978 1531 978C1491.67 978 1454 973.667 1418 965C1406 962.333 1385.33 946.833 1356 918.5C1326.67 890.167 1312 871.333 1312 862C1312 852.667 1315.33 842.5 1322 831.5C1328.67 820.5 1332 813.667 1332 811L1365 811C1376.33 823.667 1394 839 1418 857L1433 842C1409 794 1387.33 760.333 1368 741C1375.33 725.667 1386.67 708.333 1402 689C1420 724.333 1461 777.5 1525 848.5C1589 919.5 1623.33 958.333 1628 965ZM856 1565C806 1573.67 756.667 1596.17 708 1632.5C659.333 1668.83 627.333 1707.67 612 1749L438 1749L438 1700C437.333 1690.67 443 1678 455 1662C467 1646 477.333 1636 486 1632C528 1612.67 576.5 1585.67 631.5 1551C686.5 1516.33 716.333 1499 721 1499C743.667 1499 788.667 1521 856 1565ZM981 1267L1159 1220C1169 1220 1180 1226.67 1192 1240C1204 1253.33 1210 1266.67 1210 1280C1210 1302.67 1181.83 1321.5 1125.5 1336.5C1069.17 1351.5 1021.67 1359 983 1359C944.333 1359 887.667 1345.67 813 1319C799 1313.67 778.667 1302 752 1284C725.333 1266 706.833 1257 696.5 1257C686.167 1257 683.333 1259 688 1263C771.333 1358.33 884.667 1406 1028 1406C1076 1406 1115 1400 1145 1388L1235 1351C1247.67 1389.67 1251.33 1420 1246 1442C1184.67 1486 1145.67 1508 1129 1508L1099 1508C1101 1499.33 1102 1490.67 1102 1482C1102 1443.33 1085.33 1424 1052 1424C1042 1424 1015.5 1439.67 972.5 1471C929.5 1502.33 903 1518 893 1518C883 1518 850 1502.33 794 1471L712 1424C703.333 1424 684.5 1440.17 655.5 1472.5C626.5 1504.83 605.667 1524.67 593 1532C553 1548.67 498.333 1580.67 429 1628C405 1652.67 392.333 1682.83 391 1718.5C389.667 1754.17 389 1789.33 389 1824C345 1812.67 312.5 1790.33 291.5 1757C270.5 1723.67 260 1690.67 260 1658C260 1625.33 280 1579.67 320 1521L385 1509C415 1502.33 429.667 1492.33 429 1479C297.667 1471.67 232 1404 232 1276C232 1184.67 275.333 1142 362 1148C331.333 1194 316 1227.5 316 1248.5C316 1269.5 326.833 1291.67 348.5 1315C370.167 1338.33 398.833 1350 434.5 1350C470.167 1350 499.667 1335.5 523 1306.5C546.333 1277.5 558 1238.45 558 1189.34C558 1140.24 533.333 1079.46 484 1007L543 1007C573 1007 610.667 1029 656 1073C726.667 1143.67 771 1185.67 789 1199C849.667 1244.33 913.667 1267 981 1267ZM1721 224L1903 234C1961 234 2015 228.333 2065 217C2023.67 308.333 1959 354 1871 354C1841.67 354 1823.83 352.833 1817.5 350.5C1811.17 348.167 1799.17 342.167 1781.5 332.5C1763.83 322.833 1751.83 318 1745.5 318C1739.17 318 1731 322.667 1721 332C1723.67 336 1738.33 353.5 1765 384.5C1791.67 415.5 1805 439.667 1805 457C1805 474.333 1801.33 483.333 1794 484L1703 503C1699 503 1679.83 489.167 1645.5 461.5C1611.17 433.833 1578 420 1546 420C1514 420 1479.67 438.5 1443 475.5C1406.33 512.5 1380.67 553.667 1366 599C1351.33 644.333 1325.67 710.667 1289 798C1249.67 865.333 1167.5 930.333 1042.5 993C917.5 1055.67 839 1105 807 1141C801.667 1143 794.333 1144.33 785 1145C770.333 1130.33 763 1118 763 1108C763 1075.33 823.667 1029.33 945 970C1066.33 910.667 1133.33 875.333 1146 864C1250.67 772.667 1303 671 1303 559C1303 515.667 1293.67 476 1275 440C1249.67 389.333 1211 364 1159 364C1075 364 1035.67 407 1041 493L1009 493C995.667 485.667 980.833 471.833 964.5 451.5C948.167 431.167 940 413.5 940 398.5C940 383.5 951 366 973 346C995 326 1008.67 312 1014 304L999 290C911.667 327.333 862.667 346 852 346C724 314 660.333 274.667 661 228L661 197L757 197C836.333 194.333 948.667 207.333 1094 236C1134.67 244 1177.67 261 1223 287C1268.33 313 1298.67 342.667 1314 376C1327.33 393.333 1336.67 402 1342 402C1405.33 327.333 1466 279 1524 257C1582 235 1647.67 224 1721 224ZM764 839L797 829C816.333 843.667 854.667 879.667 912 937C882 951.667 862 959 852 959C842 959 812.667 933.333 764 882L764 839ZM335 1089L280 1097C270.667 1021 271 944.333 281 867C355 872.333 407 858 437 824L437 798C423.667 790.667 409.5 778.833 394.5 762.5C379.5 746.167 372 732.667 372 722C372 688 392 671 432 671C478.667 671 502 702.5 502 765.5C502 828.5 465.333 892.333 392 957C391.333 958.333 389.333 959.833 386 961.5C382.667 963.167 381 969.333 381 980C381 990.667 397.167 1010 429.5 1038C461.833 1066 478.333 1080.67 479 1082C507 1113.33 521 1146 521 1180C521 1214 512.833 1243 496.5 1267C480.167 1291 455.667 1303 423 1303C409 1303 395.5 1297.83 382.5 1287.5C369.5 1277.17 363 1266 363 1254C363 1242 373.833 1224.33 395.5 1201C417.167 1177.67 428 1159.5 428 1146.5C428 1133.5 417 1120.67 395 1108C373 1095.33 353 1089 335 1089ZM372 503L404 512C416.667 512 427.667 507.667 437 499C433.667 495.667 429.5 491.833 424.5 487.5C419.5 483.167 416 479.667 414 477C376.667 474.333 348.5 466.667 329.5 454C310.5 441.333 295.667 418.5 285 385.5C274.333 352.5 269 323.333 269 298C269 228 309 179 389 151C385.667 245 398.667 304 428 328C604.667 469.333 696.833 540 704.5 540C712.167 540 735 524.667 773 494C811 463.333 848 448 884 448C892 448 914.667 466.5 952 503.5C989.333 540.5 1019.67 559 1043 559C1066.33 559 1082.67 549.5 1092 530.5C1101.33 511.5 1103.67 493.667 1099 477C1135 491 1184.33 515.667 1247 551L1247 613L1234 624C1126 580.667 1043.33 559 986 559C928.667 559 871.667 572.333 815 599C758.333 625.667 716 663 688 711C693.333 712.333 700.5 713 709.5 713C718.5 713 730.667 705.333 746 690C761.333 674.667 770.667 666 774 664C836 631.333 893.833 615 947.5 615C1001.17 615 1055.67 623.667 1111 641C1166.33 658.333 1202.33 679 1219 703C1189 737.667 1171.17 755 1165.5 755C1159.83 755 1140.67 747.167 1108 731.5C1075.33 715.833 1026.17 708 960.5 708C894.833 708 833.667 729.667 777 773C770.333 778.333 730 818.667 656 894C614 937.333 573 958.667 533 958L484 958C533.333 858 558 794.5 558 767.5C558 740.5 546 708.333 522 671C498 633.667 466.667 615 428 615C407.333 615 385 624.833 361 644.5C337 664.167 325 686.667 325 712C325 737.333 337.333 769.333 362 808C360.667 808 354.5 809.833 343.5 813.5C332.5 817.167 321.333 819 310 819C268 793.667 243 772.333 235 755C233 749.667 232 731 232 699C232 667 242 630.333 262 589C289.333 531.667 326 503 372 503ZM837 400L769 447C740.333 466.333 721.833 476 713.5 476C705.167 476 657 443.833 569 379.5C481 315.167 437.333 277 438 265L438 225L612 225C632.667 268.333 667 306.667 715 340C763 373.333 803.667 393.333 837 400ZM14762 1631L14707 1631L14717 1666C14735.7 1666 14750.7 1654.33 14762 1631ZM14677 1631L14623 1631L14644 1656L14677 1656L14677 1631ZM14604 615C14596 602.333 14582 596 14562 596C14510 596 14462.2 611.333 14418.5 642C14374.8 672.667 14353 716.333 14353 773C14353 800.333 14361.2 831 14377.5 865C14393.8 899 14414.7 917.667 14440 921C14412.7 829.667 14399 782 14399 778C14399 726.667 14415.7 690.333 14449 669C14482.3 647.667 14520.3 637.667 14563 639C14573.7 635.667 14587.3 627.667 14604 615ZM14753 335L14726 324L14726 337L14749 348L14753 335ZM14686 309L14633 319C14633 322.333 14636.3 326.667 14643 332C14649.7 337.333 14653 341.667 14653 345C14659.7 340.333 14666.8 335 14674.5 329C14682.2 323 14686 316.333 14686 309ZM1721 1632L1667 1632L1667 1656L1721 1632ZM1637 1641L1583 1630C1583 1640.67 1589.67 1652.67 1603 1666C1617.67 1666 1629 1657.67 1637 1641ZM1992 773C1992 711 1969.33 666 1924 638C1878.67 610 1831.33 596 1782 596C1762.67 596 1748.67 600.333 1740 609C1746.67 621 1761.17 629 1783.5 633C1805.83 637 1826.67 641 1846 645C1912 669 1945 713.333 1945 778C1945 796 1930 843.333 1900 920C1927.33 922 1949.5 905.667 1966.5 871C1983.5 836.333 1992 803.667 1992 773ZM1701 309L1658 309C1658 322.333 1668.67 334.667 1690 346C1702.67 332.667 1706.33 320.333 1701 309Z" fill="#886637" fill-rule="nonzero" opacity="1" stroke="none"/>
</g>
</svg>
